<mxfile host="app.diagrams.net" modified="2023-05-04T19:52:02.581Z" agent="Mozilla/5.0 (Windows NT 10.0; Win64; x64) AppleWebKit/537.36 (KHTML, like Gecko) Chrome/112.0.0.0 Safari/537.36" etag="2_AVGEyqI9YldfJ63NVE" version="21.2.6" type="device">
  <diagram name="Page-1" id="Op2aQDQ8uJPvuN4dRdyH">
    <mxGraphModel dx="1533" dy="333" grid="1" gridSize="10" guides="1" tooltips="1" connect="1" arrows="1" fold="1" page="1" pageScale="10" pageWidth="850" pageHeight="1100" math="0" shadow="0">
      <root>
        <mxCell id="0" />
        <mxCell id="1" parent="0" />
        <mxCell id="I4kw4sfv-XJ1i7Al1kqw-211" style="edgeStyle=none;rounded=0;orthogonalLoop=1;jettySize=auto;html=1;exitX=0.25;exitY=0;exitDx=0;exitDy=0;" edge="1" parent="1" source="I4kw4sfv-XJ1i7Al1kqw-1">
          <mxGeometry relative="1" as="geometry">
            <mxPoint x="430" y="670" as="targetPoint" />
            <Array as="points">
              <mxPoint x="610" y="580" />
              <mxPoint x="410" y="580" />
              <mxPoint x="410" y="670" />
            </Array>
          </mxGeometry>
        </mxCell>
        <mxCell id="I4kw4sfv-XJ1i7Al1kqw-213" value="&lt;font style=&quot;font-size: 24px;&quot;&gt;8-0(SE)&lt;/font&gt;" style="edgeLabel;html=1;align=center;verticalAlign=middle;resizable=0;points=[];" vertex="1" connectable="0" parent="I4kw4sfv-XJ1i7Al1kqw-211">
          <mxGeometry x="0.3887" relative="1" as="geometry">
            <mxPoint x="63" as="offset" />
          </mxGeometry>
        </mxCell>
        <mxCell id="I4kw4sfv-XJ1i7Al1kqw-360" value="SE_out3" style="edgeLabel;html=1;align=center;verticalAlign=middle;resizable=0;points=[];" vertex="1" connectable="0" parent="I4kw4sfv-XJ1i7Al1kqw-211">
          <mxGeometry x="0.6928" relative="1" as="geometry">
            <mxPoint as="offset" />
          </mxGeometry>
        </mxCell>
        <mxCell id="I4kw4sfv-XJ1i7Al1kqw-362" value="SE_in3" style="edgeLabel;html=1;align=center;verticalAlign=middle;resizable=0;points=[];" vertex="1" connectable="0" parent="I4kw4sfv-XJ1i7Al1kqw-211">
          <mxGeometry x="-0.1534" y="1" relative="1" as="geometry">
            <mxPoint as="offset" />
          </mxGeometry>
        </mxCell>
        <mxCell id="I4kw4sfv-XJ1i7Al1kqw-215" style="edgeStyle=none;rounded=0;orthogonalLoop=1;jettySize=auto;html=1;exitX=1;exitY=0.25;exitDx=0;exitDy=0;entryX=-0.007;entryY=0.396;entryDx=0;entryDy=0;entryPerimeter=0;" edge="1" parent="1" source="I4kw4sfv-XJ1i7Al1kqw-1" target="I4kw4sfv-XJ1i7Al1kqw-7">
          <mxGeometry relative="1" as="geometry">
            <Array as="points">
              <mxPoint x="1130" y="900" />
            </Array>
          </mxGeometry>
        </mxCell>
        <mxCell id="I4kw4sfv-XJ1i7Al1kqw-216" value="&lt;font style=&quot;font-size: 48px;&quot;&gt;PC_Instr_P1&lt;/font&gt;" style="edgeLabel;html=1;align=center;verticalAlign=middle;resizable=0;points=[];" vertex="1" connectable="0" parent="I4kw4sfv-XJ1i7Al1kqw-215">
          <mxGeometry x="-0.2938" y="2" relative="1" as="geometry">
            <mxPoint x="-1" as="offset" />
          </mxGeometry>
        </mxCell>
        <mxCell id="I4kw4sfv-XJ1i7Al1kqw-341" style="edgeStyle=none;rounded=0;orthogonalLoop=1;jettySize=auto;html=1;exitX=1;exitY=0.5;exitDx=0;exitDy=0;entryX=0.028;entryY=0.149;entryDx=0;entryDy=0;entryPerimeter=0;" edge="1" parent="1" source="I4kw4sfv-XJ1i7Al1kqw-1" target="I4kw4sfv-XJ1i7Al1kqw-5">
          <mxGeometry relative="1" as="geometry" />
        </mxCell>
        <mxCell id="I4kw4sfv-XJ1i7Al1kqw-342" value="&lt;font style=&quot;font-size: 36px;&quot;&gt;P1_instr&lt;/font&gt;" style="edgeLabel;html=1;align=center;verticalAlign=middle;resizable=0;points=[];" vertex="1" connectable="0" parent="I4kw4sfv-XJ1i7Al1kqw-341">
          <mxGeometry x="-0.3114" y="4" relative="1" as="geometry">
            <mxPoint x="30" y="-6" as="offset" />
          </mxGeometry>
        </mxCell>
        <mxCell id="I4kw4sfv-XJ1i7Al1kqw-408" style="edgeStyle=none;rounded=0;orthogonalLoop=1;jettySize=auto;html=1;exitX=0;exitY=0.25;exitDx=0;exitDy=0;entryX=0;entryY=0.25;entryDx=0;entryDy=0;" edge="1" parent="1" target="I4kw4sfv-XJ1i7Al1kqw-1">
          <mxGeometry relative="1" as="geometry">
            <mxPoint x="30" y="905" as="sourcePoint" />
          </mxGeometry>
        </mxCell>
        <mxCell id="I4kw4sfv-XJ1i7Al1kqw-409" value="&lt;font style=&quot;font-size: 24px;&quot;&gt;PC&lt;/font&gt;" style="edgeLabel;html=1;align=center;verticalAlign=middle;resizable=0;points=[];" vertex="1" connectable="0" parent="I4kw4sfv-XJ1i7Al1kqw-408">
          <mxGeometry x="-0.4405" y="8" relative="1" as="geometry">
            <mxPoint x="-1" y="1" as="offset" />
          </mxGeometry>
        </mxCell>
        <mxCell id="I4kw4sfv-XJ1i7Al1kqw-1" value="1. PC&lt;br&gt;2. Instruction" style="rounded=0;whiteSpace=wrap;html=1;fillColor=#ffe6cc;strokeColor=#d79b00;" vertex="1" parent="1">
          <mxGeometry x="590" y="750" width="80" height="620" as="geometry" />
        </mxCell>
        <mxCell id="I4kw4sfv-XJ1i7Al1kqw-2" value="Instruction Memory" style="rounded=0;whiteSpace=wrap;html=1;" vertex="1" parent="1">
          <mxGeometry x="180" y="990" width="220" height="500" as="geometry" />
        </mxCell>
        <mxCell id="I4kw4sfv-XJ1i7Al1kqw-4" value="&lt;font style=&quot;font-size: 36px;&quot;&gt;Instr&lt;/font&gt;" style="edgeStyle=orthogonalEdgeStyle;rounded=0;orthogonalLoop=1;jettySize=auto;html=1;exitX=1;exitY=0.5;exitDx=0;exitDy=0;" edge="1" parent="1" source="I4kw4sfv-XJ1i7Al1kqw-2">
          <mxGeometry x="0.4894" y="5" relative="1" as="geometry">
            <mxPoint x="470" y="1210" as="sourcePoint" />
            <mxPoint x="590" y="1100" as="targetPoint" />
            <Array as="points">
              <mxPoint x="400" y="1105" />
            </Array>
            <mxPoint as="offset" />
          </mxGeometry>
        </mxCell>
        <mxCell id="I4kw4sfv-XJ1i7Al1kqw-9" value="" style="edgeStyle=orthogonalEdgeStyle;rounded=0;orthogonalLoop=1;jettySize=auto;html=1;entryX=0.001;entryY=0.616;entryDx=0;entryDy=0;entryPerimeter=0;" edge="1" parent="1" source="I4kw4sfv-XJ1i7Al1kqw-5" target="I4kw4sfv-XJ1i7Al1kqw-7">
          <mxGeometry relative="1" as="geometry">
            <mxPoint x="1090" y="1105" as="targetPoint" />
            <Array as="points" />
          </mxGeometry>
        </mxCell>
        <mxCell id="I4kw4sfv-XJ1i7Al1kqw-11" value="&lt;font style=&quot;font-size: 36px;&quot;&gt;CB&lt;/font&gt;" style="edgeLabel;html=1;align=center;verticalAlign=middle;resizable=0;points=[];fontStyle=1" vertex="1" connectable="0" parent="I4kw4sfv-XJ1i7Al1kqw-9">
          <mxGeometry x="-0.182" relative="1" as="geometry">
            <mxPoint x="-7" as="offset" />
          </mxGeometry>
        </mxCell>
        <mxCell id="I4kw4sfv-XJ1i7Al1kqw-5" value="Decoder" style="rounded=0;whiteSpace=wrap;html=1;" vertex="1" parent="1">
          <mxGeometry x="870" y="1040" width="120" height="130" as="geometry" />
        </mxCell>
        <mxCell id="I4kw4sfv-XJ1i7Al1kqw-46" style="edgeStyle=none;rounded=0;orthogonalLoop=1;jettySize=auto;html=1;exitX=1.01;exitY=0.635;exitDx=0;exitDy=0;entryX=0.631;entryY=1.011;entryDx=0;entryDy=0;entryPerimeter=0;exitPerimeter=0;" edge="1" parent="1" source="I4kw4sfv-XJ1i7Al1kqw-7" target="I4kw4sfv-XJ1i7Al1kqw-40">
          <mxGeometry relative="1" as="geometry" />
        </mxCell>
        <mxCell id="I4kw4sfv-XJ1i7Al1kqw-49" value="Counter" style="edgeLabel;html=1;align=center;verticalAlign=middle;resizable=0;points=[];" vertex="1" connectable="0" parent="I4kw4sfv-XJ1i7Al1kqw-46">
          <mxGeometry x="-0.4736" y="-1" relative="1" as="geometry">
            <mxPoint as="offset" />
          </mxGeometry>
        </mxCell>
        <mxCell id="I4kw4sfv-XJ1i7Al1kqw-225" style="edgeStyle=none;rounded=0;orthogonalLoop=1;jettySize=auto;html=1;exitX=1;exitY=0;exitDx=0;exitDy=0;entryX=0;entryY=0.053;entryDx=0;entryDy=0;entryPerimeter=0;" edge="1" parent="1" source="I4kw4sfv-XJ1i7Al1kqw-7" target="I4kw4sfv-XJ1i7Al1kqw-66">
          <mxGeometry relative="1" as="geometry" />
        </mxCell>
        <mxCell id="I4kw4sfv-XJ1i7Al1kqw-226" value="&lt;font style=&quot;font-size: 24px;&quot;&gt;PC_15to8_CB_Counter_P2&lt;/font&gt;" style="edgeLabel;html=1;align=center;verticalAlign=middle;resizable=0;points=[];" vertex="1" connectable="0" parent="I4kw4sfv-XJ1i7Al1kqw-225">
          <mxGeometry x="-0.133" y="-1" relative="1" as="geometry">
            <mxPoint x="140" y="1" as="offset" />
          </mxGeometry>
        </mxCell>
        <mxCell id="I4kw4sfv-XJ1i7Al1kqw-7" value="1. PC&lt;br&gt;2. Instruction&lt;br&gt;3. Control Bits&lt;br&gt;4. Counter" style="rounded=0;whiteSpace=wrap;html=1;fillColor=#ffe6cc;strokeColor=#d79b00;" vertex="1" parent="1">
          <mxGeometry x="1200" y="530" width="150" height="935" as="geometry" />
        </mxCell>
        <mxCell id="I4kw4sfv-XJ1i7Al1kqw-30" style="edgeStyle=orthogonalEdgeStyle;rounded=0;orthogonalLoop=1;jettySize=auto;html=1;exitX=1;exitY=0.5;exitDx=0;exitDy=0;" edge="1" parent="1" source="I4kw4sfv-XJ1i7Al1kqw-23">
          <mxGeometry relative="1" as="geometry">
            <mxPoint x="1200" y="1319" as="targetPoint" />
            <Array as="points">
              <mxPoint x="1110" y="1315" />
              <mxPoint x="1110" y="1319" />
            </Array>
          </mxGeometry>
        </mxCell>
        <mxCell id="I4kw4sfv-XJ1i7Al1kqw-33" value="counter_output" style="edgeLabel;html=1;align=center;verticalAlign=middle;resizable=0;points=[];" vertex="1" connectable="0" parent="I4kw4sfv-XJ1i7Al1kqw-30">
          <mxGeometry x="-0.2787" y="4" relative="1" as="geometry">
            <mxPoint x="1" as="offset" />
          </mxGeometry>
        </mxCell>
        <mxCell id="I4kw4sfv-XJ1i7Al1kqw-23" value="Counter1" style="rounded=0;whiteSpace=wrap;html=1;" vertex="1" parent="1">
          <mxGeometry x="840" y="1280" width="180" height="70" as="geometry" />
        </mxCell>
        <mxCell id="I4kw4sfv-XJ1i7Al1kqw-25" style="edgeStyle=orthogonalEdgeStyle;rounded=0;orthogonalLoop=1;jettySize=auto;html=1;exitX=0;exitY=0.5;exitDx=0;exitDy=0;entryX=0;entryY=0.5;entryDx=0;entryDy=0;" edge="1" parent="1" source="I4kw4sfv-XJ1i7Al1kqw-24" target="I4kw4sfv-XJ1i7Al1kqw-23">
          <mxGeometry relative="1" as="geometry">
            <Array as="points">
              <mxPoint x="730" y="1465" />
              <mxPoint x="730" y="1315" />
            </Array>
          </mxGeometry>
        </mxCell>
        <mxCell id="I4kw4sfv-XJ1i7Al1kqw-37" value="counter_input" style="edgeLabel;html=1;align=center;verticalAlign=middle;resizable=0;points=[];" vertex="1" connectable="0" parent="I4kw4sfv-XJ1i7Al1kqw-25">
          <mxGeometry x="-0.107" y="-2" relative="1" as="geometry">
            <mxPoint as="offset" />
          </mxGeometry>
        </mxCell>
        <mxCell id="I4kw4sfv-XJ1i7Al1kqw-35" style="edgeStyle=orthogonalEdgeStyle;rounded=0;orthogonalLoop=1;jettySize=auto;html=1;exitX=1;exitY=0.5;exitDx=0;exitDy=0;entryX=1;entryY=0.5;entryDx=0;entryDy=0;" edge="1" parent="1" target="I4kw4sfv-XJ1i7Al1kqw-24">
          <mxGeometry relative="1" as="geometry">
            <mxPoint x="1150" y="1320" as="sourcePoint" />
            <Array as="points">
              <mxPoint x="1150" y="1465" />
            </Array>
          </mxGeometry>
        </mxCell>
        <mxCell id="I4kw4sfv-XJ1i7Al1kqw-24" value="Incrementer" style="rounded=0;whiteSpace=wrap;html=1;" vertex="1" parent="1">
          <mxGeometry x="840" y="1430" width="180" height="70" as="geometry" />
        </mxCell>
        <mxCell id="I4kw4sfv-XJ1i7Al1kqw-197" style="edgeStyle=none;rounded=0;orthogonalLoop=1;jettySize=auto;html=1;exitX=0.5;exitY=0;exitDx=0;exitDy=0;entryX=0.25;entryY=1;entryDx=0;entryDy=0;" edge="1" parent="1" source="I4kw4sfv-XJ1i7Al1kqw-38" target="I4kw4sfv-XJ1i7Al1kqw-179">
          <mxGeometry relative="1" as="geometry">
            <Array as="points">
              <mxPoint x="630" y="560" />
              <mxPoint x="110" y="560" />
              <mxPoint x="110" y="700" />
            </Array>
          </mxGeometry>
        </mxCell>
        <mxCell id="I4kw4sfv-XJ1i7Al1kqw-199" value="&lt;font style=&quot;font-size: 24px;&quot;&gt;8-0 (S)(SE)&lt;/font&gt;" style="edgeLabel;html=1;align=center;verticalAlign=middle;resizable=0;points=[];" vertex="1" connectable="0" parent="I4kw4sfv-XJ1i7Al1kqw-197">
          <mxGeometry x="0.2998" y="2" relative="1" as="geometry">
            <mxPoint as="offset" />
          </mxGeometry>
        </mxCell>
        <mxCell id="I4kw4sfv-XJ1i7Al1kqw-345" value="&lt;font style=&quot;font-size: 18px;&quot;&gt;SE_out1&lt;/font&gt;" style="edgeLabel;html=1;align=center;verticalAlign=middle;resizable=0;points=[];" vertex="1" connectable="0" parent="I4kw4sfv-XJ1i7Al1kqw-197">
          <mxGeometry x="0.7857" relative="1" as="geometry">
            <mxPoint y="-1" as="offset" />
          </mxGeometry>
        </mxCell>
        <mxCell id="I4kw4sfv-XJ1i7Al1kqw-358" value="&lt;font style=&quot;font-size: 18px;&quot;&gt;S1_in&lt;/font&gt;" style="edgeLabel;html=1;align=center;verticalAlign=middle;resizable=0;points=[];" vertex="1" connectable="0" parent="I4kw4sfv-XJ1i7Al1kqw-197">
          <mxGeometry x="0.0795" y="-2" relative="1" as="geometry">
            <mxPoint x="9" as="offset" />
          </mxGeometry>
        </mxCell>
        <mxCell id="I4kw4sfv-XJ1i7Al1kqw-38" value="P1" style="text;html=1;strokeColor=none;fillColor=none;align=center;verticalAlign=middle;whiteSpace=wrap;rounded=0;" vertex="1" parent="1">
          <mxGeometry x="600" y="770" width="60" height="30" as="geometry" />
        </mxCell>
        <mxCell id="I4kw4sfv-XJ1i7Al1kqw-39" value="P2" style="text;html=1;strokeColor=none;fillColor=none;align=center;verticalAlign=middle;whiteSpace=wrap;rounded=0;" vertex="1" parent="1">
          <mxGeometry x="1245" y="840" width="60" height="30" as="geometry" />
        </mxCell>
        <mxCell id="I4kw4sfv-XJ1i7Al1kqw-43" style="edgeStyle=none;rounded=0;orthogonalLoop=1;jettySize=auto;html=1;entryX=0.25;entryY=1;entryDx=0;entryDy=0;" edge="1" parent="1" target="I4kw4sfv-XJ1i7Al1kqw-40">
          <mxGeometry relative="1" as="geometry">
            <mxPoint x="1360" y="1055" as="sourcePoint" />
          </mxGeometry>
        </mxCell>
        <mxCell id="I4kw4sfv-XJ1i7Al1kqw-44" value="8-6" style="edgeLabel;html=1;align=center;verticalAlign=middle;resizable=0;points=[];" vertex="1" connectable="0" parent="I4kw4sfv-XJ1i7Al1kqw-43">
          <mxGeometry x="-0.385" y="-6" relative="1" as="geometry">
            <mxPoint x="-1" as="offset" />
          </mxGeometry>
        </mxCell>
        <mxCell id="I4kw4sfv-XJ1i7Al1kqw-45" value="RF_A2_P2" style="edgeLabel;html=1;align=center;verticalAlign=middle;resizable=0;points=[];" vertex="1" connectable="0" parent="I4kw4sfv-XJ1i7Al1kqw-43">
          <mxGeometry x="0.2537" y="-3" relative="1" as="geometry">
            <mxPoint x="-1" as="offset" />
          </mxGeometry>
        </mxCell>
        <mxCell id="I4kw4sfv-XJ1i7Al1kqw-51" style="edgeStyle=none;rounded=0;orthogonalLoop=1;jettySize=auto;html=1;exitX=0.5;exitY=0;exitDx=0;exitDy=0;entryX=0;entryY=0.5;entryDx=0;entryDy=0;" edge="1" parent="1" source="I4kw4sfv-XJ1i7Al1kqw-40" target="I4kw4sfv-XJ1i7Al1kqw-50">
          <mxGeometry relative="1" as="geometry" />
        </mxCell>
        <mxCell id="I4kw4sfv-XJ1i7Al1kqw-52" value="RF_A2" style="edgeLabel;html=1;align=center;verticalAlign=middle;resizable=0;points=[];" vertex="1" connectable="0" parent="I4kw4sfv-XJ1i7Al1kqw-51">
          <mxGeometry x="-0.5215" y="-3" relative="1" as="geometry">
            <mxPoint x="-1" as="offset" />
          </mxGeometry>
        </mxCell>
        <mxCell id="I4kw4sfv-XJ1i7Al1kqw-40" value="M15_3bit" style="shape=trapezoid;perimeter=trapezoidPerimeter;whiteSpace=wrap;html=1;fixedSize=1;direction=south;" vertex="1" parent="1">
          <mxGeometry x="1510" y="1000" width="90" height="220" as="geometry" />
        </mxCell>
        <mxCell id="I4kw4sfv-XJ1i7Al1kqw-53" style="edgeStyle=none;rounded=0;orthogonalLoop=1;jettySize=auto;html=1;entryX=0;entryY=0.25;entryDx=0;entryDy=0;" edge="1" parent="1" target="I4kw4sfv-XJ1i7Al1kqw-50">
          <mxGeometry relative="1" as="geometry">
            <mxPoint x="1360" y="925" as="sourcePoint" />
          </mxGeometry>
        </mxCell>
        <mxCell id="I4kw4sfv-XJ1i7Al1kqw-54" value="RF_A1" style="edgeLabel;html=1;align=center;verticalAlign=middle;resizable=0;points=[];" vertex="1" connectable="0" parent="I4kw4sfv-XJ1i7Al1kqw-53">
          <mxGeometry x="-0.16" y="1" relative="1" as="geometry">
            <mxPoint as="offset" />
          </mxGeometry>
        </mxCell>
        <mxCell id="I4kw4sfv-XJ1i7Al1kqw-57" style="edgeStyle=none;rounded=0;orthogonalLoop=1;jettySize=auto;html=1;exitX=1;exitY=0.5;exitDx=0;exitDy=0;entryX=0.594;entryY=0.833;entryDx=0;entryDy=0;entryPerimeter=0;" edge="1" parent="1" source="I4kw4sfv-XJ1i7Al1kqw-50" target="I4kw4sfv-XJ1i7Al1kqw-56">
          <mxGeometry relative="1" as="geometry" />
        </mxCell>
        <mxCell id="I4kw4sfv-XJ1i7Al1kqw-61" value="D2" style="edgeLabel;html=1;align=center;verticalAlign=middle;resizable=0;points=[];" vertex="1" connectable="0" parent="I4kw4sfv-XJ1i7Al1kqw-57">
          <mxGeometry x="-0.2831" y="-4" relative="1" as="geometry">
            <mxPoint x="1" as="offset" />
          </mxGeometry>
        </mxCell>
        <mxCell id="I4kw4sfv-XJ1i7Al1kqw-220" style="edgeStyle=none;rounded=0;orthogonalLoop=1;jettySize=auto;html=1;exitX=0.5;exitY=0;exitDx=0;exitDy=0;entryX=0.5;entryY=0;entryDx=0;entryDy=0;" edge="1" parent="1" source="I4kw4sfv-XJ1i7Al1kqw-50" target="I4kw4sfv-XJ1i7Al1kqw-55">
          <mxGeometry relative="1" as="geometry" />
        </mxCell>
        <mxCell id="I4kw4sfv-XJ1i7Al1kqw-50" value="R1&lt;br&gt;&lt;br&gt;R2&lt;br&gt;&lt;br&gt;R3&lt;br&gt;&lt;br&gt;R4&lt;br&gt;&lt;br&gt;R5&lt;br&gt;&lt;br&gt;R6&lt;br&gt;&lt;br&gt;R6&lt;br&gt;&lt;br&gt;R7" style="rounded=0;whiteSpace=wrap;html=1;" vertex="1" parent="1">
          <mxGeometry x="1810" y="730" width="150" height="780" as="geometry" />
        </mxCell>
        <mxCell id="I4kw4sfv-XJ1i7Al1kqw-184" style="edgeStyle=none;rounded=0;orthogonalLoop=1;jettySize=auto;html=1;exitX=0;exitY=0.5;exitDx=0;exitDy=0;entryX=-0.012;entryY=0.171;entryDx=0;entryDy=0;entryPerimeter=0;" edge="1" parent="1" source="I4kw4sfv-XJ1i7Al1kqw-55" target="I4kw4sfv-XJ1i7Al1kqw-2">
          <mxGeometry relative="1" as="geometry">
            <mxPoint x="200" y="510" as="targetPoint" />
            <Array as="points">
              <mxPoint x="1690" y="795" />
              <mxPoint x="1690" y="480" />
              <mxPoint x="30" y="480" />
              <mxPoint x="30" y="1076" />
            </Array>
          </mxGeometry>
        </mxCell>
        <mxCell id="I4kw4sfv-XJ1i7Al1kqw-186" value="&lt;font style=&quot;font-size: 36px;&quot;&gt;PC&lt;/font&gt;" style="edgeLabel;html=1;align=center;verticalAlign=middle;resizable=0;points=[];" vertex="1" connectable="0" parent="I4kw4sfv-XJ1i7Al1kqw-184">
          <mxGeometry x="-0.5907" y="-5" relative="1" as="geometry">
            <mxPoint as="offset" />
          </mxGeometry>
        </mxCell>
        <mxCell id="I4kw4sfv-XJ1i7Al1kqw-55" value="R0" style="rounded=0;whiteSpace=wrap;html=1;" vertex="1" parent="1">
          <mxGeometry x="1825" y="780" width="120" height="30" as="geometry" />
        </mxCell>
        <mxCell id="I4kw4sfv-XJ1i7Al1kqw-67" style="edgeStyle=none;rounded=0;orthogonalLoop=1;jettySize=auto;html=1;exitX=0.5;exitY=0;exitDx=0;exitDy=0;entryX=-0.002;entryY=0.543;entryDx=0;entryDy=0;entryPerimeter=0;" edge="1" parent="1" source="I4kw4sfv-XJ1i7Al1kqw-56" target="I4kw4sfv-XJ1i7Al1kqw-66">
          <mxGeometry relative="1" as="geometry" />
        </mxCell>
        <mxCell id="I4kw4sfv-XJ1i7Al1kqw-68" value="M14_OUT" style="edgeLabel;html=1;align=center;verticalAlign=middle;resizable=0;points=[];" vertex="1" connectable="0" parent="I4kw4sfv-XJ1i7Al1kqw-67">
          <mxGeometry x="-0.3845" y="-3" relative="1" as="geometry">
            <mxPoint x="6" as="offset" />
          </mxGeometry>
        </mxCell>
        <mxCell id="I4kw4sfv-XJ1i7Al1kqw-301" style="edgeStyle=none;rounded=0;orthogonalLoop=1;jettySize=auto;html=1;exitX=0.112;exitY=1.001;exitDx=0;exitDy=0;exitPerimeter=0;strokeColor=#FF8000;" edge="1" parent="1" source="I4kw4sfv-XJ1i7Al1kqw-56">
          <mxGeometry relative="1" as="geometry">
            <mxPoint x="5045.33349609375" y="800" as="targetPoint" />
            <Array as="points">
              <mxPoint x="2000" y="1047" />
              <mxPoint x="2000" y="650" />
              <mxPoint x="2000" y="270" />
              <mxPoint x="3130" y="270" />
              <mxPoint x="5045" y="250" />
            </Array>
          </mxGeometry>
        </mxCell>
        <mxCell id="I4kw4sfv-XJ1i7Al1kqw-303" value="&lt;font style=&quot;font-size: 72px;&quot;&gt;M7_out&lt;/font&gt;" style="edgeLabel;html=1;align=center;verticalAlign=middle;resizable=0;points=[];" vertex="1" connectable="0" parent="I4kw4sfv-XJ1i7Al1kqw-301">
          <mxGeometry x="0.2668" y="1" relative="1" as="geometry">
            <mxPoint as="offset" />
          </mxGeometry>
        </mxCell>
        <mxCell id="I4kw4sfv-XJ1i7Al1kqw-56" value="M14" style="shape=trapezoid;perimeter=trapezoidPerimeter;whiteSpace=wrap;html=1;fixedSize=1;direction=south;fillColor=#f8cecc;strokeColor=#b85450;" vertex="1" parent="1">
          <mxGeometry x="2150" y="1025" width="130" height="195" as="geometry" />
        </mxCell>
        <mxCell id="I4kw4sfv-XJ1i7Al1kqw-63" value="2" style="text;html=1;align=center;verticalAlign=middle;resizable=0;points=[];autosize=1;strokeColor=none;fillColor=none;" vertex="1" parent="1">
          <mxGeometry x="2140" y="1107.5" width="30" height="30" as="geometry" />
        </mxCell>
        <mxCell id="I4kw4sfv-XJ1i7Al1kqw-86" style="edgeStyle=none;rounded=0;orthogonalLoop=1;jettySize=auto;html=1;" edge="1" parent="1">
          <mxGeometry relative="1" as="geometry">
            <mxPoint x="2550" y="772" as="sourcePoint" />
            <mxPoint x="2725" y="772" as="targetPoint" />
          </mxGeometry>
        </mxCell>
        <mxCell id="I4kw4sfv-XJ1i7Al1kqw-87" value="&lt;font style=&quot;font-size: 18px;&quot;&gt;PC_P3&lt;/font&gt;" style="edgeLabel;html=1;align=center;verticalAlign=middle;resizable=0;points=[];" vertex="1" connectable="0" parent="I4kw4sfv-XJ1i7Al1kqw-86">
          <mxGeometry x="-0.4041" y="-1" relative="1" as="geometry">
            <mxPoint x="1" as="offset" />
          </mxGeometry>
        </mxCell>
        <mxCell id="I4kw4sfv-XJ1i7Al1kqw-107" style="edgeStyle=none;rounded=0;orthogonalLoop=1;jettySize=auto;html=1;exitX=1;exitY=0.5;exitDx=0;exitDy=0;entryX=0.153;entryY=1;entryDx=0;entryDy=0;entryPerimeter=0;" edge="1" parent="1" source="I4kw4sfv-XJ1i7Al1kqw-329" target="I4kw4sfv-XJ1i7Al1kqw-106">
          <mxGeometry relative="1" as="geometry" />
        </mxCell>
        <mxCell id="I4kw4sfv-XJ1i7Al1kqw-334" value="S3_out" style="edgeLabel;html=1;align=center;verticalAlign=middle;resizable=0;points=[];" vertex="1" connectable="0" parent="I4kw4sfv-XJ1i7Al1kqw-107">
          <mxGeometry x="-0.7115" y="2" relative="1" as="geometry">
            <mxPoint x="2" y="13" as="offset" />
          </mxGeometry>
        </mxCell>
        <mxCell id="I4kw4sfv-XJ1i7Al1kqw-337" value="SE_out7" style="edgeLabel;html=1;align=center;verticalAlign=middle;resizable=0;points=[];" vertex="1" connectable="0" parent="I4kw4sfv-XJ1i7Al1kqw-107">
          <mxGeometry x="0.569" relative="1" as="geometry">
            <mxPoint y="-27" as="offset" />
          </mxGeometry>
        </mxCell>
        <mxCell id="I4kw4sfv-XJ1i7Al1kqw-173" style="edgeStyle=none;rounded=0;orthogonalLoop=1;jettySize=auto;html=1;exitX=0;exitY=0.75;exitDx=0;exitDy=0;strokeColor=#FFFF00;" edge="1" parent="1" source="I4kw4sfv-XJ1i7Al1kqw-66">
          <mxGeometry relative="1" as="geometry">
            <mxPoint x="2150" y="1210" as="targetPoint" />
            <Array as="points">
              <mxPoint x="2120" y="1375" />
              <mxPoint x="2120" y="1210" />
            </Array>
          </mxGeometry>
        </mxCell>
        <mxCell id="I4kw4sfv-XJ1i7Al1kqw-389" value="SE_out5" style="edgeLabel;html=1;align=center;verticalAlign=middle;resizable=0;points=[];" vertex="1" connectable="0" parent="I4kw4sfv-XJ1i7Al1kqw-173">
          <mxGeometry x="-0.0317" y="1" relative="1" as="geometry">
            <mxPoint as="offset" />
          </mxGeometry>
        </mxCell>
        <mxCell id="I4kw4sfv-XJ1i7Al1kqw-390" value="SE_in5" style="edgeLabel;html=1;align=center;verticalAlign=middle;resizable=0;points=[];" vertex="1" connectable="0" parent="I4kw4sfv-XJ1i7Al1kqw-173">
          <mxGeometry x="-0.8586" y="-1" relative="1" as="geometry">
            <mxPoint as="offset" />
          </mxGeometry>
        </mxCell>
        <mxCell id="I4kw4sfv-XJ1i7Al1kqw-427" style="edgeStyle=none;rounded=0;orthogonalLoop=1;jettySize=auto;html=1;exitX=1;exitY=0;exitDx=0;exitDy=0;entryX=-0.024;entryY=0.083;entryDx=0;entryDy=0;entryPerimeter=0;" edge="1" parent="1" source="I4kw4sfv-XJ1i7Al1kqw-66" target="I4kw4sfv-XJ1i7Al1kqw-152">
          <mxGeometry relative="1" as="geometry" />
        </mxCell>
        <mxCell id="I4kw4sfv-XJ1i7Al1kqw-428" value="&lt;font style=&quot;font-size: 14px;&quot;&gt;PC_Instruction_CB_D1_D2_Counter_P3&lt;/font&gt;" style="edgeLabel;html=1;align=center;verticalAlign=middle;resizable=0;points=[];" vertex="1" connectable="0" parent="I4kw4sfv-XJ1i7Al1kqw-427">
          <mxGeometry x="-0.4474" y="7" relative="1" as="geometry">
            <mxPoint x="1" as="offset" />
          </mxGeometry>
        </mxCell>
        <mxCell id="I4kw4sfv-XJ1i7Al1kqw-66" value="&lt;font style=&quot;font-size: 24px;&quot;&gt;1. PC&lt;br&gt;2. Instruction&lt;br&gt;3. Control Bits&lt;br&gt;4. D1&lt;br&gt;5. D2&lt;br&gt;6. Counter&lt;/font&gt;" style="rounded=0;whiteSpace=wrap;html=1;fillColor=#ffe6cc;strokeColor=#d79b00;" vertex="1" parent="1">
          <mxGeometry x="2340" y="460" width="210" height="1220" as="geometry" />
        </mxCell>
        <mxCell id="I4kw4sfv-XJ1i7Al1kqw-71" style="edgeStyle=none;rounded=0;orthogonalLoop=1;jettySize=auto;html=1;exitX=1;exitY=0.5;exitDx=0;exitDy=-5;exitPerimeter=0;" edge="1" parent="1" source="I4kw4sfv-XJ1i7Al1kqw-69">
          <mxGeometry relative="1" as="geometry">
            <mxPoint x="2220" y="910" as="targetPoint" />
          </mxGeometry>
        </mxCell>
        <mxCell id="I4kw4sfv-XJ1i7Al1kqw-72" value="M2_out" style="edgeLabel;html=1;align=center;verticalAlign=middle;resizable=0;points=[];" vertex="1" connectable="0" parent="I4kw4sfv-XJ1i7Al1kqw-71">
          <mxGeometry x="-0.4775" relative="1" as="geometry">
            <mxPoint as="offset" />
          </mxGeometry>
        </mxCell>
        <mxCell id="I4kw4sfv-XJ1i7Al1kqw-73" style="edgeStyle=none;rounded=0;orthogonalLoop=1;jettySize=auto;html=1;exitX=0.993;exitY=0.189;exitDx=0;exitDy=0;exitPerimeter=0;entryX=0;entryY=0.22333333333333333;entryDx=0;entryDy=3;entryPerimeter=0;" edge="1" parent="1" source="I4kw4sfv-XJ1i7Al1kqw-50" target="I4kw4sfv-XJ1i7Al1kqw-69">
          <mxGeometry relative="1" as="geometry" />
        </mxCell>
        <mxCell id="I4kw4sfv-XJ1i7Al1kqw-75" value="D1" style="edgeLabel;html=1;align=center;verticalAlign=middle;resizable=0;points=[];" vertex="1" connectable="0" parent="I4kw4sfv-XJ1i7Al1kqw-73">
          <mxGeometry x="-0.5326" y="-5" relative="1" as="geometry">
            <mxPoint as="offset" />
          </mxGeometry>
        </mxCell>
        <mxCell id="I4kw4sfv-XJ1i7Al1kqw-78" style="edgeStyle=none;rounded=0;orthogonalLoop=1;jettySize=auto;html=1;exitX=0.35714285714285715;exitY=1;exitDx=10;exitDy=0;exitPerimeter=0;entryX=0.35714285714285715;entryY=1;entryDx=10;entryDy=0;entryPerimeter=0;" edge="1" parent="1" target="I4kw4sfv-XJ1i7Al1kqw-69">
          <mxGeometry relative="1" as="geometry">
            <mxPoint x="2094.7272727272725" y="1040" as="sourcePoint" />
          </mxGeometry>
        </mxCell>
        <mxCell id="I4kw4sfv-XJ1i7Al1kqw-69" value="&lt;font style=&quot;font-size: 18px;&quot;&gt;M2&lt;/font&gt;" style="shadow=0;dashed=0;align=center;html=1;strokeWidth=1;shape=mxgraph.electrical.abstract.mux2;whiteSpace=wrap;" vertex="1" parent="1">
          <mxGeometry x="2060" y="840" width="70" height="150" as="geometry" />
        </mxCell>
        <mxCell id="I4kw4sfv-XJ1i7Al1kqw-81" style="edgeStyle=none;rounded=0;orthogonalLoop=1;jettySize=auto;html=1;exitX=0.5;exitY=0;exitDx=0;exitDy=0;entryX=0.01;entryY=0.373;entryDx=0;entryDy=0;entryPerimeter=0;" edge="1" parent="1" source="I4kw4sfv-XJ1i7Al1kqw-70" target="I4kw4sfv-XJ1i7Al1kqw-66">
          <mxGeometry relative="1" as="geometry" />
        </mxCell>
        <mxCell id="I4kw4sfv-XJ1i7Al1kqw-309" style="edgeStyle=none;rounded=0;orthogonalLoop=1;jettySize=auto;html=1;entryX=0.054;entryY=0.99;entryDx=0;entryDy=0;strokeColor=#FF8000;entryPerimeter=0;" edge="1" parent="1" target="I4kw4sfv-XJ1i7Al1kqw-70">
          <mxGeometry relative="1" as="geometry">
            <mxPoint x="2000" y="857" as="sourcePoint" />
          </mxGeometry>
        </mxCell>
        <mxCell id="I4kw4sfv-XJ1i7Al1kqw-315" style="edgeStyle=none;rounded=0;orthogonalLoop=1;jettySize=auto;html=1;strokeColor=#FF0000;" edge="1" parent="1">
          <mxGeometry relative="1" as="geometry">
            <mxPoint x="2220" y="883" as="targetPoint" />
            <mxPoint x="2130" y="883" as="sourcePoint" />
          </mxGeometry>
        </mxCell>
        <mxCell id="I4kw4sfv-XJ1i7Al1kqw-319" style="edgeStyle=none;rounded=0;orthogonalLoop=1;jettySize=auto;html=1;exitX=0.75;exitY=1;exitDx=0;exitDy=0;strokeColor=#666600;" edge="1" parent="1" target="I4kw4sfv-XJ1i7Al1kqw-320">
          <mxGeometry relative="1" as="geometry">
            <mxPoint x="2220" y="990" as="targetPoint" />
            <mxPoint x="2140" y="1140" as="sourcePoint" />
            <Array as="points">
              <mxPoint x="2140" y="935" />
            </Array>
          </mxGeometry>
        </mxCell>
        <mxCell id="I4kw4sfv-XJ1i7Al1kqw-322" style="edgeStyle=none;rounded=0;orthogonalLoop=1;jettySize=auto;html=1;strokeColor=#00CC00;" edge="1" parent="1" target="I4kw4sfv-XJ1i7Al1kqw-323">
          <mxGeometry relative="1" as="geometry">
            <mxPoint x="2120" y="1170" as="sourcePoint" />
            <Array as="points">
              <mxPoint x="2120" y="965" />
            </Array>
          </mxGeometry>
        </mxCell>
        <mxCell id="I4kw4sfv-XJ1i7Al1kqw-387" style="edgeStyle=none;rounded=0;orthogonalLoop=1;jettySize=auto;html=1;exitX=-0.128;exitY=0.726;exitDx=0;exitDy=0;entryX=0.837;entryY=1.018;entryDx=0;entryDy=0;entryPerimeter=0;exitPerimeter=0;strokeColor=#FFFF00;" edge="1" parent="1" source="I4kw4sfv-XJ1i7Al1kqw-235" target="I4kw4sfv-XJ1i7Al1kqw-70">
          <mxGeometry relative="1" as="geometry">
            <mxPoint x="2130" y="1211.25" as="sourcePoint" />
            <Array as="points">
              <mxPoint x="2150" y="992" />
            </Array>
          </mxGeometry>
        </mxCell>
        <mxCell id="I4kw4sfv-XJ1i7Al1kqw-70" value="M13" style="shape=trapezoid;perimeter=trapezoidPerimeter;whiteSpace=wrap;html=1;fixedSize=1;direction=south;fillColor=#f8cecc;strokeColor=#b85450;" vertex="1" parent="1">
          <mxGeometry x="2220" y="850" width="50" height="170" as="geometry" />
        </mxCell>
        <mxCell id="I4kw4sfv-XJ1i7Al1kqw-79" value="S0" style="text;html=1;align=center;verticalAlign=middle;resizable=0;points=[];autosize=1;strokeColor=none;fillColor=none;" vertex="1" parent="1">
          <mxGeometry x="2085" y="995" width="40" height="30" as="geometry" />
        </mxCell>
        <mxCell id="I4kw4sfv-XJ1i7Al1kqw-82" value="M13_out" style="text;html=1;align=center;verticalAlign=middle;resizable=0;points=[];autosize=1;strokeColor=none;fillColor=none;" vertex="1" parent="1">
          <mxGeometry x="2270" y="900" width="70" height="30" as="geometry" />
        </mxCell>
        <mxCell id="I4kw4sfv-XJ1i7Al1kqw-193" style="edgeStyle=none;rounded=0;orthogonalLoop=1;jettySize=auto;html=1;exitX=0.5;exitY=0;exitDx=0;exitDy=0;entryX=0.5;entryY=1;entryDx=0;entryDy=0;strokeColor=#4C0099;" edge="1" parent="1" source="I4kw4sfv-XJ1i7Al1kqw-84" target="I4kw4sfv-XJ1i7Al1kqw-179">
          <mxGeometry relative="1" as="geometry">
            <Array as="points">
              <mxPoint x="2445" y="160" />
              <mxPoint x="1140" y="160" />
              <mxPoint x="70" y="160" />
              <mxPoint x="70" y="721" />
            </Array>
          </mxGeometry>
        </mxCell>
        <mxCell id="I4kw4sfv-XJ1i7Al1kqw-196" value="&lt;font style=&quot;font-size: 48px;&quot;&gt;5-0 (S) (SE)&amp;nbsp;&lt;/font&gt;" style="edgeLabel;html=1;align=center;verticalAlign=middle;resizable=0;points=[];" vertex="1" connectable="0" parent="I4kw4sfv-XJ1i7Al1kqw-193">
          <mxGeometry x="0.2425" y="-6" relative="1" as="geometry">
            <mxPoint x="-1" as="offset" />
          </mxGeometry>
        </mxCell>
        <mxCell id="I4kw4sfv-XJ1i7Al1kqw-346" value="&lt;font style=&quot;font-size: 24px;&quot;&gt;SE_out2&lt;/font&gt;" style="edgeLabel;html=1;align=center;verticalAlign=middle;resizable=0;points=[];" vertex="1" connectable="0" parent="I4kw4sfv-XJ1i7Al1kqw-193">
          <mxGeometry x="0.6874" y="-3" relative="1" as="geometry">
            <mxPoint y="-1" as="offset" />
          </mxGeometry>
        </mxCell>
        <mxCell id="I4kw4sfv-XJ1i7Al1kqw-363" value="S2_out" style="edgeLabel;html=1;align=center;verticalAlign=middle;resizable=0;points=[];" vertex="1" connectable="0" parent="I4kw4sfv-XJ1i7Al1kqw-193">
          <mxGeometry x="0.5355" y="1" relative="1" as="geometry">
            <mxPoint as="offset" />
          </mxGeometry>
        </mxCell>
        <mxCell id="I4kw4sfv-XJ1i7Al1kqw-364" value="S2_in" style="edgeLabel;html=1;align=center;verticalAlign=middle;resizable=0;points=[];" vertex="1" connectable="0" parent="I4kw4sfv-XJ1i7Al1kqw-193">
          <mxGeometry x="0.4403" relative="1" as="geometry">
            <mxPoint as="offset" />
          </mxGeometry>
        </mxCell>
        <mxCell id="I4kw4sfv-XJ1i7Al1kqw-84" value="&lt;font style=&quot;font-size: 24px;&quot;&gt;P3&lt;/font&gt;" style="text;html=1;strokeColor=none;fillColor=none;align=center;verticalAlign=middle;whiteSpace=wrap;rounded=0;" vertex="1" parent="1">
          <mxGeometry x="2380" y="500" width="130" height="60" as="geometry" />
        </mxCell>
        <mxCell id="I4kw4sfv-XJ1i7Al1kqw-89" style="edgeStyle=none;rounded=0;orthogonalLoop=1;jettySize=auto;html=1;entryX=0.25;entryY=1;entryDx=0;entryDy=0;" edge="1" parent="1" target="I4kw4sfv-XJ1i7Al1kqw-85">
          <mxGeometry relative="1" as="geometry">
            <mxPoint x="2550" y="800" as="sourcePoint" />
          </mxGeometry>
        </mxCell>
        <mxCell id="I4kw4sfv-XJ1i7Al1kqw-90" value="&lt;font style=&quot;font-size: 18px;&quot;&gt;D1_P3&lt;/font&gt;" style="edgeLabel;html=1;align=center;verticalAlign=middle;resizable=0;points=[];" vertex="1" connectable="0" parent="I4kw4sfv-XJ1i7Al1kqw-89">
          <mxGeometry x="-0.4418" y="2" relative="1" as="geometry">
            <mxPoint x="-1" as="offset" />
          </mxGeometry>
        </mxCell>
        <mxCell id="I4kw4sfv-XJ1i7Al1kqw-92" style="edgeStyle=none;rounded=0;orthogonalLoop=1;jettySize=auto;html=1;exitX=1.014;exitY=0.321;exitDx=0;exitDy=0;exitPerimeter=0;" edge="1" parent="1" source="I4kw4sfv-XJ1i7Al1kqw-66">
          <mxGeometry relative="1" as="geometry">
            <mxPoint x="2720" y="850" as="targetPoint" />
          </mxGeometry>
        </mxCell>
        <mxCell id="I4kw4sfv-XJ1i7Al1kqw-93" value="&lt;font style=&quot;font-size: 18px;&quot;&gt;SE_in6&lt;/font&gt;" style="edgeLabel;html=1;align=center;verticalAlign=middle;resizable=0;points=[];" vertex="1" connectable="0" parent="I4kw4sfv-XJ1i7Al1kqw-92">
          <mxGeometry x="-0.5491" y="-6" relative="1" as="geometry">
            <mxPoint x="-1" y="-7" as="offset" />
          </mxGeometry>
        </mxCell>
        <mxCell id="I4kw4sfv-XJ1i7Al1kqw-328" value="SE_out6" style="edgeLabel;html=1;align=center;verticalAlign=middle;resizable=0;points=[];" vertex="1" connectable="0" parent="I4kw4sfv-XJ1i7Al1kqw-92">
          <mxGeometry x="0.6791" relative="1" as="geometry">
            <mxPoint y="10" as="offset" />
          </mxGeometry>
        </mxCell>
        <mxCell id="I4kw4sfv-XJ1i7Al1kqw-120" style="edgeStyle=none;rounded=0;orthogonalLoop=1;jettySize=auto;html=1;exitX=0.75;exitY=0;exitDx=0;exitDy=0;" edge="1" parent="1" source="I4kw4sfv-XJ1i7Al1kqw-85">
          <mxGeometry relative="1" as="geometry">
            <mxPoint x="2950" y="880.090909090909" as="targetPoint" />
          </mxGeometry>
        </mxCell>
        <mxCell id="I4kw4sfv-XJ1i7Al1kqw-123" value="&lt;font style=&quot;font-size: 24px;&quot;&gt;A&lt;/font&gt;" style="edgeLabel;html=1;align=center;verticalAlign=middle;resizable=0;points=[];" vertex="1" connectable="0" parent="I4kw4sfv-XJ1i7Al1kqw-120">
          <mxGeometry x="-0.4274" y="-1" relative="1" as="geometry">
            <mxPoint as="offset" />
          </mxGeometry>
        </mxCell>
        <mxCell id="I4kw4sfv-XJ1i7Al1kqw-85" value="&lt;font style=&quot;font-size: 18px;&quot;&gt;M3&lt;/font&gt;" style="shape=trapezoid;perimeter=trapezoidPerimeter;whiteSpace=wrap;html=1;fixedSize=1;direction=south;" vertex="1" parent="1">
          <mxGeometry x="2720" y="760" width="60" height="160" as="geometry" />
        </mxCell>
        <mxCell id="I4kw4sfv-XJ1i7Al1kqw-88" value="&lt;font style=&quot;font-size: 14px;&quot;&gt;0&lt;/font&gt;" style="text;html=1;align=center;verticalAlign=middle;resizable=0;points=[];autosize=1;strokeColor=none;fillColor=none;" vertex="1" parent="1">
          <mxGeometry x="2710" y="760" width="30" height="30" as="geometry" />
        </mxCell>
        <mxCell id="I4kw4sfv-XJ1i7Al1kqw-91" value="&lt;font style=&quot;font-size: 14px;&quot;&gt;1&lt;/font&gt;" style="text;html=1;align=center;verticalAlign=middle;resizable=0;points=[];autosize=1;strokeColor=none;fillColor=none;" vertex="1" parent="1">
          <mxGeometry x="2710" y="790" width="30" height="30" as="geometry" />
        </mxCell>
        <mxCell id="I4kw4sfv-XJ1i7Al1kqw-94" value="&lt;font style=&quot;font-size: 14px;&quot;&gt;2&lt;/font&gt;" style="text;html=1;align=center;verticalAlign=middle;resizable=0;points=[];autosize=1;strokeColor=none;fillColor=none;" vertex="1" parent="1">
          <mxGeometry x="2710" y="835" width="30" height="30" as="geometry" />
        </mxCell>
        <mxCell id="I4kw4sfv-XJ1i7Al1kqw-95" value="" style="endArrow=none;html=1;rounded=0;" edge="1" parent="1">
          <mxGeometry width="50" height="50" relative="1" as="geometry">
            <mxPoint x="2940" y="920" as="sourcePoint" />
            <mxPoint x="2940" y="840" as="targetPoint" />
            <Array as="points" />
          </mxGeometry>
        </mxCell>
        <mxCell id="I4kw4sfv-XJ1i7Al1kqw-96" value="" style="endArrow=none;html=1;rounded=0;" edge="1" parent="1">
          <mxGeometry width="50" height="50" relative="1" as="geometry">
            <mxPoint x="2980" y="1010" as="sourcePoint" />
            <mxPoint x="2980" y="950" as="targetPoint" />
          </mxGeometry>
        </mxCell>
        <mxCell id="I4kw4sfv-XJ1i7Al1kqw-97" value="" style="endArrow=none;html=1;rounded=0;" edge="1" parent="1">
          <mxGeometry width="50" height="50" relative="1" as="geometry">
            <mxPoint x="2940" y="1120" as="sourcePoint" />
            <mxPoint x="2940" y="1040" as="targetPoint" />
          </mxGeometry>
        </mxCell>
        <mxCell id="I4kw4sfv-XJ1i7Al1kqw-98" value="" style="endArrow=none;html=1;rounded=0;" edge="1" parent="1">
          <mxGeometry width="50" height="50" relative="1" as="geometry">
            <mxPoint x="3040" y="1040" as="sourcePoint" />
            <mxPoint x="3040" y="900" as="targetPoint" />
            <Array as="points">
              <mxPoint x="3040" y="960" />
            </Array>
          </mxGeometry>
        </mxCell>
        <mxCell id="I4kw4sfv-XJ1i7Al1kqw-99" value="" style="endArrow=none;html=1;rounded=0;" edge="1" parent="1">
          <mxGeometry width="50" height="50" relative="1" as="geometry">
            <mxPoint x="2940" y="840" as="sourcePoint" />
            <mxPoint x="3040" y="900" as="targetPoint" />
          </mxGeometry>
        </mxCell>
        <mxCell id="I4kw4sfv-XJ1i7Al1kqw-100" value="" style="endArrow=none;html=1;rounded=0;" edge="1" parent="1">
          <mxGeometry width="50" height="50" relative="1" as="geometry">
            <mxPoint x="2940" y="1120" as="sourcePoint" />
            <mxPoint x="3040" y="1040" as="targetPoint" />
          </mxGeometry>
        </mxCell>
        <mxCell id="I4kw4sfv-XJ1i7Al1kqw-101" value="" style="endArrow=none;html=1;rounded=0;" edge="1" parent="1">
          <mxGeometry width="50" height="50" relative="1" as="geometry">
            <mxPoint x="2940" y="1040" as="sourcePoint" />
            <mxPoint x="2980" y="1010" as="targetPoint" />
          </mxGeometry>
        </mxCell>
        <mxCell id="I4kw4sfv-XJ1i7Al1kqw-102" value="" style="endArrow=none;html=1;rounded=0;" edge="1" parent="1">
          <mxGeometry width="50" height="50" relative="1" as="geometry">
            <mxPoint x="2940" y="920" as="sourcePoint" />
            <mxPoint x="2980" y="950" as="targetPoint" />
          </mxGeometry>
        </mxCell>
        <mxCell id="I4kw4sfv-XJ1i7Al1kqw-103" value="&lt;font style=&quot;font-size: 18px;&quot;&gt;ALU&lt;/font&gt;" style="text;html=1;align=center;verticalAlign=middle;resizable=0;points=[];autosize=1;strokeColor=none;fillColor=none;" vertex="1" parent="1">
          <mxGeometry x="2975" y="965" width="60" height="40" as="geometry" />
        </mxCell>
        <mxCell id="I4kw4sfv-XJ1i7Al1kqw-126" style="edgeStyle=none;rounded=0;orthogonalLoop=1;jettySize=auto;html=1;exitX=0.25;exitY=1;exitDx=0;exitDy=0;" edge="1" parent="1" source="I4kw4sfv-XJ1i7Al1kqw-104">
          <mxGeometry relative="1" as="geometry">
            <mxPoint x="2970" y="860" as="targetPoint" />
            <Array as="points">
              <mxPoint x="2970" y="850" />
            </Array>
          </mxGeometry>
        </mxCell>
        <mxCell id="I4kw4sfv-XJ1i7Al1kqw-128" value="&lt;font style=&quot;font-size: 14px;&quot;&gt;C_in&lt;/font&gt;" style="edgeLabel;html=1;align=center;verticalAlign=middle;resizable=0;points=[];" vertex="1" connectable="0" parent="I4kw4sfv-XJ1i7Al1kqw-126">
          <mxGeometry x="-0.528" y="-1" relative="1" as="geometry">
            <mxPoint y="1" as="offset" />
          </mxGeometry>
        </mxCell>
        <mxCell id="I4kw4sfv-XJ1i7Al1kqw-134" style="edgeStyle=none;rounded=0;orthogonalLoop=1;jettySize=auto;html=1;exitX=0.5;exitY=0;exitDx=0;exitDy=0;entryX=0.75;entryY=0;entryDx=0;entryDy=0;" edge="1" parent="1" target="I4kw4sfv-XJ1i7Al1kqw-104">
          <mxGeometry relative="1" as="geometry">
            <mxPoint x="3040" y="1000" as="sourcePoint" />
            <Array as="points">
              <mxPoint x="3220" y="1000" />
              <mxPoint x="3220" y="680" />
              <mxPoint x="2993" y="680" />
            </Array>
          </mxGeometry>
        </mxCell>
        <mxCell id="I4kw4sfv-XJ1i7Al1kqw-136" value="&lt;font style=&quot;font-size: 18px;&quot;&gt;C_out1&lt;/font&gt;" style="edgeLabel;html=1;align=center;verticalAlign=middle;resizable=0;points=[];" vertex="1" connectable="0" parent="I4kw4sfv-XJ1i7Al1kqw-134">
          <mxGeometry x="-0.7403" y="-5" relative="1" as="geometry">
            <mxPoint y="-1" as="offset" />
          </mxGeometry>
        </mxCell>
        <mxCell id="I4kw4sfv-XJ1i7Al1kqw-240" style="edgeStyle=none;rounded=0;orthogonalLoop=1;jettySize=auto;html=1;exitX=0.5;exitY=0;exitDx=0;exitDy=0;entryX=0.014;entryY=0.11;entryDx=0;entryDy=0;entryPerimeter=0;" edge="1" parent="1" source="I4kw4sfv-XJ1i7Al1kqw-104" target="I4kw4sfv-XJ1i7Al1kqw-152">
          <mxGeometry relative="1" as="geometry">
            <Array as="points">
              <mxPoint x="2975" y="500" />
            </Array>
          </mxGeometry>
        </mxCell>
        <mxCell id="I4kw4sfv-XJ1i7Al1kqw-242" value="&lt;font style=&quot;font-size: 24px;&quot;&gt;C_out&lt;/font&gt;" style="edgeLabel;html=1;align=center;verticalAlign=middle;resizable=0;points=[];" vertex="1" connectable="0" parent="I4kw4sfv-XJ1i7Al1kqw-240">
          <mxGeometry x="-0.0192" y="6" relative="1" as="geometry">
            <mxPoint as="offset" />
          </mxGeometry>
        </mxCell>
        <mxCell id="I4kw4sfv-XJ1i7Al1kqw-104" value="&lt;font style=&quot;font-size: 18px;&quot;&gt;C&lt;/font&gt;" style="rounded=0;whiteSpace=wrap;html=1;" vertex="1" parent="1">
          <mxGeometry x="2940" y="770" width="70" height="50" as="geometry" />
        </mxCell>
        <mxCell id="I4kw4sfv-XJ1i7Al1kqw-110" style="edgeStyle=none;rounded=0;orthogonalLoop=1;jettySize=auto;html=1;exitX=0.997;exitY=0.545;exitDx=0;exitDy=0;entryX=0.5;entryY=1;entryDx=0;entryDy=0;exitPerimeter=0;" edge="1" parent="1" source="I4kw4sfv-XJ1i7Al1kqw-66" target="I4kw4sfv-XJ1i7Al1kqw-106">
          <mxGeometry relative="1" as="geometry" />
        </mxCell>
        <mxCell id="I4kw4sfv-XJ1i7Al1kqw-111" value="&lt;font style=&quot;font-size: 18px;&quot;&gt;D2_P3&lt;/font&gt;" style="edgeLabel;html=1;align=center;verticalAlign=middle;resizable=0;points=[];" vertex="1" connectable="0" parent="I4kw4sfv-XJ1i7Al1kqw-110">
          <mxGeometry x="-0.4542" relative="1" as="geometry">
            <mxPoint x="-19" y="-2" as="offset" />
          </mxGeometry>
        </mxCell>
        <mxCell id="I4kw4sfv-XJ1i7Al1kqw-113" style="edgeStyle=none;rounded=0;orthogonalLoop=1;jettySize=auto;html=1;exitX=0.997;exitY=0.583;exitDx=0;exitDy=0;entryX=0.75;entryY=1;entryDx=0;entryDy=0;exitPerimeter=0;" edge="1" parent="1" source="I4kw4sfv-XJ1i7Al1kqw-66" target="I4kw4sfv-XJ1i7Al1kqw-106">
          <mxGeometry relative="1" as="geometry" />
        </mxCell>
        <mxCell id="I4kw4sfv-XJ1i7Al1kqw-398" value="SE_in8" style="edgeLabel;html=1;align=center;verticalAlign=middle;resizable=0;points=[];" vertex="1" connectable="0" parent="I4kw4sfv-XJ1i7Al1kqw-113">
          <mxGeometry x="-0.7864" y="2" relative="1" as="geometry">
            <mxPoint x="13" y="2" as="offset" />
          </mxGeometry>
        </mxCell>
        <mxCell id="I4kw4sfv-XJ1i7Al1kqw-116" style="edgeStyle=none;rounded=0;orthogonalLoop=1;jettySize=auto;html=1;entryX=1;entryY=1;entryDx=0;entryDy=0;" edge="1" parent="1" target="I4kw4sfv-XJ1i7Al1kqw-106">
          <mxGeometry relative="1" as="geometry">
            <mxPoint x="2620" y="1210" as="sourcePoint" />
          </mxGeometry>
        </mxCell>
        <mxCell id="I4kw4sfv-XJ1i7Al1kqw-119" style="edgeStyle=none;rounded=0;orthogonalLoop=1;jettySize=auto;html=1;exitX=0.25;exitY=0;exitDx=0;exitDy=0;" edge="1" parent="1" source="I4kw4sfv-XJ1i7Al1kqw-106">
          <mxGeometry relative="1" as="geometry">
            <mxPoint x="2940" y="1081.9090909090908" as="targetPoint" />
          </mxGeometry>
        </mxCell>
        <mxCell id="I4kw4sfv-XJ1i7Al1kqw-124" value="&lt;font style=&quot;font-size: 24px;&quot;&gt;B&lt;/font&gt;" style="edgeLabel;html=1;align=center;verticalAlign=middle;resizable=0;points=[];" vertex="1" connectable="0" parent="I4kw4sfv-XJ1i7Al1kqw-119">
          <mxGeometry x="-0.5091" y="-7" relative="1" as="geometry">
            <mxPoint as="offset" />
          </mxGeometry>
        </mxCell>
        <mxCell id="I4kw4sfv-XJ1i7Al1kqw-106" value="&lt;font style=&quot;font-size: 18px;&quot;&gt;M4&lt;/font&gt;" style="shape=trapezoid;perimeter=trapezoidPerimeter;whiteSpace=wrap;html=1;fixedSize=1;direction=south;" vertex="1" parent="1">
          <mxGeometry x="2730" y="1040" width="60" height="170" as="geometry" />
        </mxCell>
        <mxCell id="I4kw4sfv-XJ1i7Al1kqw-109" value="&lt;font style=&quot;font-size: 18px;&quot;&gt;0&lt;/font&gt;" style="text;html=1;align=center;verticalAlign=middle;resizable=0;points=[];autosize=1;strokeColor=none;fillColor=none;" vertex="1" parent="1">
          <mxGeometry x="2720" y="1050" width="30" height="40" as="geometry" />
        </mxCell>
        <mxCell id="I4kw4sfv-XJ1i7Al1kqw-112" value="&lt;font style=&quot;font-size: 18px;&quot;&gt;1&lt;/font&gt;" style="text;html=1;align=center;verticalAlign=middle;resizable=0;points=[];autosize=1;strokeColor=none;fillColor=none;" vertex="1" parent="1">
          <mxGeometry x="2720" y="1102.5" width="30" height="40" as="geometry" />
        </mxCell>
        <mxCell id="I4kw4sfv-XJ1i7Al1kqw-115" value="&lt;font style=&quot;font-size: 18px;&quot;&gt;2&lt;/font&gt;" style="text;html=1;align=center;verticalAlign=middle;resizable=0;points=[];autosize=1;strokeColor=none;fillColor=none;" vertex="1" parent="1">
          <mxGeometry x="2720" y="1145" width="30" height="40" as="geometry" />
        </mxCell>
        <mxCell id="I4kw4sfv-XJ1i7Al1kqw-117" value="&lt;font style=&quot;font-size: 18px;&quot;&gt;+2&lt;/font&gt;" style="text;html=1;align=center;verticalAlign=middle;resizable=0;points=[];autosize=1;strokeColor=none;fillColor=none;" vertex="1" parent="1">
          <mxGeometry x="2590" y="1195" width="40" height="40" as="geometry" />
        </mxCell>
        <mxCell id="I4kw4sfv-XJ1i7Al1kqw-118" value="&lt;font style=&quot;font-size: 14px;&quot;&gt;3&lt;/font&gt;" style="text;html=1;align=center;verticalAlign=middle;resizable=0;points=[];autosize=1;strokeColor=none;fillColor=none;" vertex="1" parent="1">
          <mxGeometry x="2720" y="1190" width="30" height="30" as="geometry" />
        </mxCell>
        <mxCell id="I4kw4sfv-XJ1i7Al1kqw-130" style="edgeStyle=none;rounded=0;orthogonalLoop=1;jettySize=auto;html=1;exitX=0.25;exitY=1;exitDx=0;exitDy=0;" edge="1" parent="1" source="I4kw4sfv-XJ1i7Al1kqw-129">
          <mxGeometry relative="1" as="geometry">
            <mxPoint x="3020" y="890" as="targetPoint" />
            <Array as="points" />
          </mxGeometry>
        </mxCell>
        <mxCell id="I4kw4sfv-XJ1i7Al1kqw-239" style="edgeStyle=none;rounded=0;orthogonalLoop=1;jettySize=auto;html=1;exitX=0.5;exitY=0;exitDx=0;exitDy=0;entryX=0.003;entryY=0.182;entryDx=0;entryDy=0;entryPerimeter=0;" edge="1" parent="1" source="I4kw4sfv-XJ1i7Al1kqw-129" target="I4kw4sfv-XJ1i7Al1kqw-152">
          <mxGeometry relative="1" as="geometry">
            <Array as="points">
              <mxPoint x="3055" y="604" />
            </Array>
          </mxGeometry>
        </mxCell>
        <mxCell id="I4kw4sfv-XJ1i7Al1kqw-241" value="&lt;font style=&quot;font-size: 24px;&quot;&gt;Z_out&lt;/font&gt;" style="edgeLabel;html=1;align=center;verticalAlign=middle;resizable=0;points=[];" vertex="1" connectable="0" parent="I4kw4sfv-XJ1i7Al1kqw-239">
          <mxGeometry x="-0.1046" y="2" relative="1" as="geometry">
            <mxPoint as="offset" />
          </mxGeometry>
        </mxCell>
        <mxCell id="I4kw4sfv-XJ1i7Al1kqw-129" value="&lt;font style=&quot;font-size: 18px;&quot;&gt;Z&lt;/font&gt;" style="rounded=0;whiteSpace=wrap;html=1;" vertex="1" parent="1">
          <mxGeometry x="3020" y="770" width="70" height="50" as="geometry" />
        </mxCell>
        <mxCell id="I4kw4sfv-XJ1i7Al1kqw-131" value="&lt;font style=&quot;font-size: 18px;&quot;&gt;Z_in&lt;/font&gt;" style="text;html=1;align=center;verticalAlign=middle;resizable=0;points=[];autosize=1;strokeColor=none;fillColor=none;" vertex="1" parent="1">
          <mxGeometry x="3005" y="825" width="60" height="40" as="geometry" />
        </mxCell>
        <mxCell id="I4kw4sfv-XJ1i7Al1kqw-133" value="" style="endArrow=classic;html=1;rounded=0;entryX=0.75;entryY=0;entryDx=0;entryDy=0;" edge="1" parent="1" target="I4kw4sfv-XJ1i7Al1kqw-129">
          <mxGeometry width="50" height="50" relative="1" as="geometry">
            <mxPoint x="3040" y="940" as="sourcePoint" />
            <mxPoint x="3400" y="850" as="targetPoint" />
            <Array as="points">
              <mxPoint x="3160" y="940" />
              <mxPoint x="3160" y="860" />
              <mxPoint x="3160" y="740" />
              <mxPoint x="3073" y="740" />
            </Array>
          </mxGeometry>
        </mxCell>
        <mxCell id="I4kw4sfv-XJ1i7Al1kqw-135" value="&lt;font style=&quot;font-size: 18px;&quot;&gt;Z_out1&lt;/font&gt;" style="edgeLabel;html=1;align=center;verticalAlign=middle;resizable=0;points=[];" vertex="1" connectable="0" parent="I4kw4sfv-XJ1i7Al1kqw-133">
          <mxGeometry x="-0.7669" y="2" relative="1" as="geometry">
            <mxPoint as="offset" />
          </mxGeometry>
        </mxCell>
        <mxCell id="I4kw4sfv-XJ1i7Al1kqw-138" style="edgeStyle=none;rounded=0;orthogonalLoop=1;jettySize=auto;html=1;exitX=0.5;exitY=1;exitDx=0;exitDy=0;entryX=0.44;entryY=1;entryDx=0;entryDy=0;entryPerimeter=0;" edge="1" parent="1" target="I4kw4sfv-XJ1i7Al1kqw-137">
          <mxGeometry relative="1" as="geometry">
            <mxPoint x="3040" y="1020" as="sourcePoint" />
          </mxGeometry>
        </mxCell>
        <mxCell id="I4kw4sfv-XJ1i7Al1kqw-139" value="&lt;font style=&quot;font-size: 24px;&quot;&gt;ALU_out&lt;/font&gt;" style="edgeLabel;html=1;align=center;verticalAlign=middle;resizable=0;points=[];" vertex="1" connectable="0" parent="I4kw4sfv-XJ1i7Al1kqw-138">
          <mxGeometry x="-0.4487" y="-6" relative="1" as="geometry">
            <mxPoint x="17" y="7" as="offset" />
          </mxGeometry>
        </mxCell>
        <mxCell id="I4kw4sfv-XJ1i7Al1kqw-143" style="edgeStyle=none;rounded=0;orthogonalLoop=1;jettySize=auto;html=1;exitX=0.993;exitY=0.715;exitDx=0;exitDy=0;exitPerimeter=0;" edge="1" parent="1" source="I4kw4sfv-XJ1i7Al1kqw-66" target="I4kw4sfv-XJ1i7Al1kqw-146">
          <mxGeometry relative="1" as="geometry">
            <mxPoint x="2560" y="1325" as="sourcePoint" />
            <mxPoint x="3370" y="1318" as="targetPoint" />
            <Array as="points" />
          </mxGeometry>
        </mxCell>
        <mxCell id="I4kw4sfv-XJ1i7Al1kqw-145" value="&lt;font style=&quot;font-size: 24px;&quot;&gt;D1_P3&lt;/font&gt;" style="edgeLabel;html=1;align=center;verticalAlign=middle;resizable=0;points=[];" vertex="1" connectable="0" parent="I4kw4sfv-XJ1i7Al1kqw-143">
          <mxGeometry x="-0.5567" y="-1" relative="1" as="geometry">
            <mxPoint as="offset" />
          </mxGeometry>
        </mxCell>
        <mxCell id="I4kw4sfv-XJ1i7Al1kqw-168" style="edgeStyle=none;rounded=0;orthogonalLoop=1;jettySize=auto;html=1;" edge="1" parent="1" target="I4kw4sfv-XJ1i7Al1kqw-152">
          <mxGeometry relative="1" as="geometry">
            <mxPoint x="3470" y="1065" as="sourcePoint" />
          </mxGeometry>
        </mxCell>
        <mxCell id="I4kw4sfv-XJ1i7Al1kqw-169" value="&lt;font style=&quot;font-size: 24px;&quot;&gt;M5_OUT&lt;/font&gt;" style="edgeLabel;html=1;align=center;verticalAlign=middle;resizable=0;points=[];" vertex="1" connectable="0" parent="I4kw4sfv-XJ1i7Al1kqw-168">
          <mxGeometry x="-0.3535" y="-7" relative="1" as="geometry">
            <mxPoint x="1" as="offset" />
          </mxGeometry>
        </mxCell>
        <mxCell id="I4kw4sfv-XJ1i7Al1kqw-137" value="&lt;font style=&quot;font-size: 18px;&quot;&gt;M5&lt;/font&gt;" style="shape=trapezoid;perimeter=trapezoidPerimeter;whiteSpace=wrap;html=1;fixedSize=1;direction=south;" vertex="1" parent="1">
          <mxGeometry x="3380" y="737" width="90" height="643" as="geometry" />
        </mxCell>
        <mxCell id="I4kw4sfv-XJ1i7Al1kqw-140" value="&lt;font style=&quot;font-size: 14px;&quot;&gt;0&lt;/font&gt;" style="text;html=1;align=center;verticalAlign=middle;resizable=0;points=[];autosize=1;strokeColor=none;fillColor=none;" vertex="1" parent="1">
          <mxGeometry x="3380" y="1010" width="30" height="30" as="geometry" />
        </mxCell>
        <mxCell id="I4kw4sfv-XJ1i7Al1kqw-147" style="edgeStyle=none;rounded=0;orthogonalLoop=1;jettySize=auto;html=1;entryX=0.75;entryY=1;entryDx=0;entryDy=0;" edge="1" parent="1" target="I4kw4sfv-XJ1i7Al1kqw-142">
          <mxGeometry relative="1" as="geometry">
            <mxPoint x="3260" y="1320" as="sourcePoint" />
            <Array as="points">
              <mxPoint x="3260" y="1699" />
            </Array>
          </mxGeometry>
        </mxCell>
        <mxCell id="I4kw4sfv-XJ1i7Al1kqw-149" style="edgeStyle=none;rounded=0;orthogonalLoop=1;jettySize=auto;html=1;entryX=0.5;entryY=1;entryDx=0;entryDy=0;" edge="1" parent="1" target="I4kw4sfv-XJ1i7Al1kqw-142">
          <mxGeometry relative="1" as="geometry">
            <mxPoint x="3320" y="1020" as="sourcePoint" />
            <Array as="points">
              <mxPoint x="3320" y="1738" />
            </Array>
          </mxGeometry>
        </mxCell>
        <mxCell id="I4kw4sfv-XJ1i7Al1kqw-164" style="edgeStyle=none;rounded=0;orthogonalLoop=1;jettySize=auto;html=1;exitX=1;exitY=0.5;exitDx=0;exitDy=0;entryX=1;entryY=0.5;entryDx=0;entryDy=0;" edge="1" parent="1" target="I4kw4sfv-XJ1i7Al1kqw-142">
          <mxGeometry relative="1" as="geometry">
            <mxPoint x="3128.2857142857147" y="1610" as="sourcePoint" />
          </mxGeometry>
        </mxCell>
        <mxCell id="I4kw4sfv-XJ1i7Al1kqw-166" style="edgeStyle=none;rounded=0;orthogonalLoop=1;jettySize=auto;html=1;exitX=0.5;exitY=0;exitDx=0;exitDy=0;entryX=0;entryY=0.6699999999999999;entryDx=0;entryDy=3;entryPerimeter=0;" edge="1" parent="1" source="I4kw4sfv-XJ1i7Al1kqw-142" target="I4kw4sfv-XJ1i7Al1kqw-69">
          <mxGeometry relative="1" as="geometry">
            <Array as="points">
              <mxPoint x="2050" y="1738" />
            </Array>
          </mxGeometry>
        </mxCell>
        <mxCell id="I4kw4sfv-XJ1i7Al1kqw-378" value="Text" style="edgeLabel;html=1;align=center;verticalAlign=middle;resizable=0;points=[];" vertex="1" connectable="0" parent="I4kw4sfv-XJ1i7Al1kqw-166">
          <mxGeometry x="-0.6654" y="-7" relative="1" as="geometry">
            <mxPoint as="offset" />
          </mxGeometry>
        </mxCell>
        <mxCell id="I4kw4sfv-XJ1i7Al1kqw-379" value="&lt;font style=&quot;font-size: 24px;&quot;&gt;M6_out&lt;/font&gt;" style="edgeLabel;html=1;align=center;verticalAlign=middle;resizable=0;points=[];" vertex="1" connectable="0" parent="I4kw4sfv-XJ1i7Al1kqw-166">
          <mxGeometry x="-0.6382" y="3" relative="1" as="geometry">
            <mxPoint as="offset" />
          </mxGeometry>
        </mxCell>
        <mxCell id="I4kw4sfv-XJ1i7Al1kqw-142" value="&lt;font style=&quot;font-size: 36px;&quot;&gt;M6&lt;/font&gt;" style="shape=trapezoid;perimeter=trapezoidPerimeter;whiteSpace=wrap;html=1;fixedSize=1;rotation=-90;" vertex="1" parent="1">
          <mxGeometry x="3051.87" y="1690" width="155" height="96.25" as="geometry" />
        </mxCell>
        <mxCell id="I4kw4sfv-XJ1i7Al1kqw-146" value="&lt;font style=&quot;font-size: 14px;&quot;&gt;1&lt;/font&gt;" style="text;html=1;align=center;verticalAlign=middle;resizable=0;points=[];autosize=1;strokeColor=none;fillColor=none;" vertex="1" parent="1">
          <mxGeometry x="3380" y="1310" width="30" height="30" as="geometry" />
        </mxCell>
        <mxCell id="I4kw4sfv-XJ1i7Al1kqw-148" value="&lt;font style=&quot;font-size: 18px;&quot;&gt;0&lt;/font&gt;" style="text;html=1;align=center;verticalAlign=middle;resizable=0;points=[];autosize=1;strokeColor=none;fillColor=none;" vertex="1" parent="1">
          <mxGeometry x="3150" y="1675" width="30" height="40" as="geometry" />
        </mxCell>
        <mxCell id="I4kw4sfv-XJ1i7Al1kqw-150" value="&lt;font style=&quot;font-size: 18px;&quot;&gt;1&lt;/font&gt;" style="text;html=1;align=center;verticalAlign=middle;resizable=0;points=[];autosize=1;strokeColor=none;fillColor=none;" vertex="1" parent="1">
          <mxGeometry x="3150" y="1718.12" width="30" height="40" as="geometry" />
        </mxCell>
        <mxCell id="I4kw4sfv-XJ1i7Al1kqw-153" style="edgeStyle=none;rounded=0;orthogonalLoop=1;jettySize=auto;html=1;exitX=0.997;exitY=0.95;exitDx=0;exitDy=0;entryX=0.013;entryY=0.875;entryDx=0;entryDy=0;entryPerimeter=0;exitPerimeter=0;" edge="1" parent="1" source="I4kw4sfv-XJ1i7Al1kqw-66" target="I4kw4sfv-XJ1i7Al1kqw-152">
          <mxGeometry relative="1" as="geometry">
            <mxPoint x="1707.2725053267045" y="1730" as="sourcePoint" />
            <Array as="points">
              <mxPoint x="3210" y="1610" />
            </Array>
          </mxGeometry>
        </mxCell>
        <mxCell id="I4kw4sfv-XJ1i7Al1kqw-154" value="&lt;font style=&quot;font-size: 24px;&quot;&gt;&amp;nbsp;MSB&lt;/font&gt;" style="edgeLabel;html=1;align=center;verticalAlign=middle;resizable=0;points=[];" vertex="1" connectable="0" parent="I4kw4sfv-XJ1i7Al1kqw-153">
          <mxGeometry x="-0.2711" y="-2" relative="1" as="geometry">
            <mxPoint x="-1" as="offset" />
          </mxGeometry>
        </mxCell>
        <mxCell id="I4kw4sfv-XJ1i7Al1kqw-171" style="edgeStyle=none;rounded=0;orthogonalLoop=1;jettySize=auto;html=1;exitX=0;exitY=0.75;exitDx=0;exitDy=0;entryX=0.586;entryY=0.989;entryDx=0;entryDy=0;strokeColor=#666600;entryPerimeter=0;" edge="1" parent="1" source="I4kw4sfv-XJ1i7Al1kqw-152" target="I4kw4sfv-XJ1i7Al1kqw-56">
          <mxGeometry relative="1" as="geometry">
            <Array as="points">
              <mxPoint x="2090" y="1428" />
              <mxPoint x="2090" y="1140" />
            </Array>
          </mxGeometry>
        </mxCell>
        <mxCell id="I4kw4sfv-XJ1i7Al1kqw-236" value="&lt;font style=&quot;font-size: 24px;&quot;&gt;8-0(SE)&lt;/font&gt;" style="edgeLabel;html=1;align=center;verticalAlign=middle;resizable=0;points=[];" vertex="1" connectable="0" parent="I4kw4sfv-XJ1i7Al1kqw-171">
          <mxGeometry x="0.5467" y="-2" relative="1" as="geometry">
            <mxPoint as="offset" />
          </mxGeometry>
        </mxCell>
        <mxCell id="I4kw4sfv-XJ1i7Al1kqw-382" value="Text" style="edgeLabel;html=1;align=center;verticalAlign=middle;resizable=0;points=[];" vertex="1" connectable="0" parent="I4kw4sfv-XJ1i7Al1kqw-171">
          <mxGeometry x="0.0592" y="3" relative="1" as="geometry">
            <mxPoint as="offset" />
          </mxGeometry>
        </mxCell>
        <mxCell id="I4kw4sfv-XJ1i7Al1kqw-384" value="&lt;font style=&quot;font-size: 24px;&quot;&gt;SE_out4&lt;/font&gt;" style="edgeLabel;html=1;align=center;verticalAlign=middle;resizable=0;points=[];" vertex="1" connectable="0" parent="I4kw4sfv-XJ1i7Al1kqw-171">
          <mxGeometry x="0.1541" y="-5" relative="1" as="geometry">
            <mxPoint as="offset" />
          </mxGeometry>
        </mxCell>
        <mxCell id="I4kw4sfv-XJ1i7Al1kqw-414" value="&lt;font style=&quot;font-size: 24px;&quot;&gt;SE_in4&lt;/font&gt;" style="edgeLabel;html=1;align=center;verticalAlign=middle;resizable=0;points=[];" vertex="1" connectable="0" parent="I4kw4sfv-XJ1i7Al1kqw-171">
          <mxGeometry x="-0.1166" y="1" relative="1" as="geometry">
            <mxPoint x="1" as="offset" />
          </mxGeometry>
        </mxCell>
        <mxCell id="I4kw4sfv-XJ1i7Al1kqw-246" style="edgeStyle=none;rounded=0;orthogonalLoop=1;jettySize=auto;html=1;exitX=1;exitY=0.25;exitDx=0;exitDy=0;entryX=0.284;entryY=1;entryDx=0;entryDy=0;entryPerimeter=0;" edge="1" parent="1" source="I4kw4sfv-XJ1i7Al1kqw-152" target="I4kw4sfv-XJ1i7Al1kqw-245">
          <mxGeometry relative="1" as="geometry">
            <mxPoint x="4170" y="710" as="targetPoint" />
          </mxGeometry>
        </mxCell>
        <mxCell id="I4kw4sfv-XJ1i7Al1kqw-247" value="&lt;font style=&quot;font-size: 18px;&quot;&gt;D1_P4&lt;/font&gt;" style="edgeLabel;html=1;align=center;verticalAlign=middle;resizable=0;points=[];" vertex="1" connectable="0" parent="I4kw4sfv-XJ1i7Al1kqw-246">
          <mxGeometry x="-0.2784" y="3" relative="1" as="geometry">
            <mxPoint x="-1" as="offset" />
          </mxGeometry>
        </mxCell>
        <mxCell id="I4kw4sfv-XJ1i7Al1kqw-152" value="&lt;font style=&quot;font-size: 24px;&quot;&gt;1. PC&lt;br&gt;2. Instruction&lt;br&gt;3. Control Bit&lt;br&gt;4. D1&lt;br&gt;5. D2&lt;br&gt;6. Counter&lt;br&gt;7. Out&lt;br&gt;8. MSB&lt;br&gt;9.C&lt;br&gt;10.Z&lt;br&gt;&lt;/font&gt;" style="rounded=0;whiteSpace=wrap;html=1;fillColor=#ffe6cc;strokeColor=#d79b00;" vertex="1" parent="1">
          <mxGeometry x="3790" y="340" width="230" height="1450" as="geometry" />
        </mxCell>
        <mxCell id="I4kw4sfv-XJ1i7Al1kqw-158" style="edgeStyle=none;rounded=0;orthogonalLoop=1;jettySize=auto;html=1;exitX=1.008;exitY=0.98;exitDx=0;exitDy=0;entryX=1;entryY=0.5;entryDx=0;entryDy=0;exitPerimeter=0;" edge="1" parent="1" source="I4kw4sfv-XJ1i7Al1kqw-66" target="I4kw4sfv-XJ1i7Al1kqw-157">
          <mxGeometry relative="1" as="geometry">
            <Array as="points">
              <mxPoint x="2690" y="1656" />
              <mxPoint x="2690" y="1910" />
            </Array>
          </mxGeometry>
        </mxCell>
        <mxCell id="I4kw4sfv-XJ1i7Al1kqw-159" value="&lt;font style=&quot;font-size: 24px;&quot;&gt;7-0(shiifter_in)&lt;/font&gt;" style="edgeLabel;html=1;align=center;verticalAlign=middle;resizable=0;points=[];" vertex="1" connectable="0" parent="I4kw4sfv-XJ1i7Al1kqw-158">
          <mxGeometry x="0.2632" y="5" relative="1" as="geometry">
            <mxPoint as="offset" />
          </mxGeometry>
        </mxCell>
        <mxCell id="I4kw4sfv-XJ1i7Al1kqw-157" value="&lt;font style=&quot;font-size: 24px;&quot;&gt;Shifter&lt;/font&gt;" style="whiteSpace=wrap;html=1;aspect=fixed;" vertex="1" parent="1">
          <mxGeometry x="1960" y="1820" width="190" height="190" as="geometry" />
        </mxCell>
        <mxCell id="I4kw4sfv-XJ1i7Al1kqw-167" style="edgeStyle=none;rounded=0;orthogonalLoop=1;jettySize=auto;html=1;exitX=0.25;exitY=1;exitDx=0;exitDy=0;strokeColor=#FF0000;entryX=0.25;entryY=1;entryDx=0;entryDy=0;" edge="1" parent="1" target="I4kw4sfv-XJ1i7Al1kqw-56">
          <mxGeometry relative="1" as="geometry">
            <mxPoint x="3660" y="1070" as="sourcePoint" />
            <Array as="points">
              <mxPoint x="3670" y="400" />
              <mxPoint x="2130" y="400" />
              <mxPoint x="2130" y="1074" />
            </Array>
          </mxGeometry>
        </mxCell>
        <mxCell id="I4kw4sfv-XJ1i7Al1kqw-227" value="&lt;font style=&quot;font-size: 48px;&quot;&gt;M5_OUT&lt;/font&gt;" style="edgeLabel;html=1;align=center;verticalAlign=middle;resizable=0;points=[];" vertex="1" connectable="0" parent="I4kw4sfv-XJ1i7Al1kqw-167">
          <mxGeometry x="0.054" y="2" relative="1" as="geometry">
            <mxPoint as="offset" />
          </mxGeometry>
        </mxCell>
        <mxCell id="I4kw4sfv-XJ1i7Al1kqw-170" value="1" style="text;html=1;align=center;verticalAlign=middle;resizable=0;points=[];autosize=1;strokeColor=none;fillColor=none;" vertex="1" parent="1">
          <mxGeometry x="2140" y="1060" width="30" height="30" as="geometry" />
        </mxCell>
        <mxCell id="I4kw4sfv-XJ1i7Al1kqw-172" value="3" style="text;html=1;align=center;verticalAlign=middle;resizable=0;points=[];autosize=1;strokeColor=none;fillColor=none;" vertex="1" parent="1">
          <mxGeometry x="2140" y="1130" width="30" height="30" as="geometry" />
        </mxCell>
        <mxCell id="I4kw4sfv-XJ1i7Al1kqw-202" style="edgeStyle=none;rounded=0;orthogonalLoop=1;jettySize=auto;html=1;strokeColor=#0000FF;entryX=0.578;entryY=0.997;entryDx=0;entryDy=0;entryPerimeter=0;" edge="1" parent="1" target="I4kw4sfv-XJ1i7Al1kqw-174">
          <mxGeometry relative="1" as="geometry">
            <mxPoint x="430" y="728" as="targetPoint" />
            <mxPoint x="3722" y="1070" as="sourcePoint" />
            <Array as="points">
              <mxPoint x="3722" y="240" />
              <mxPoint x="1570" y="240" />
              <mxPoint x="380" y="240" />
              <mxPoint x="380" y="747" />
            </Array>
          </mxGeometry>
        </mxCell>
        <mxCell id="I4kw4sfv-XJ1i7Al1kqw-204" value="&lt;font style=&quot;font-size: 48px;&quot;&gt;M5_OUT&lt;/font&gt;" style="edgeLabel;html=1;align=center;verticalAlign=middle;resizable=0;points=[];" vertex="1" connectable="0" parent="I4kw4sfv-XJ1i7Al1kqw-202">
          <mxGeometry x="0.6256" y="-3" relative="1" as="geometry">
            <mxPoint as="offset" />
          </mxGeometry>
        </mxCell>
        <mxCell id="I4kw4sfv-XJ1i7Al1kqw-206" style="edgeStyle=none;rounded=0;orthogonalLoop=1;jettySize=auto;html=1;exitX=0.25;exitY=1;exitDx=0;exitDy=0;strokeColor=#0000FF;" edge="1" parent="1" target="I4kw4sfv-XJ1i7Al1kqw-209">
          <mxGeometry relative="1" as="geometry">
            <mxPoint x="2303" y="1123" as="sourcePoint" />
            <Array as="points">
              <mxPoint x="2303" y="350" />
              <mxPoint x="400" y="350" />
              <mxPoint x="400" y="700" />
            </Array>
          </mxGeometry>
        </mxCell>
        <mxCell id="I4kw4sfv-XJ1i7Al1kqw-208" value="&lt;font style=&quot;font-size: 48px;&quot;&gt;M14_OUT&lt;/font&gt;" style="edgeLabel;html=1;align=center;verticalAlign=middle;resizable=0;points=[];" vertex="1" connectable="0" parent="I4kw4sfv-XJ1i7Al1kqw-206">
          <mxGeometry x="-0.2247" y="3" relative="1" as="geometry">
            <mxPoint as="offset" />
          </mxGeometry>
        </mxCell>
        <mxCell id="I4kw4sfv-XJ1i7Al1kqw-305" style="edgeStyle=none;rounded=0;orthogonalLoop=1;jettySize=auto;html=1;exitX=0.113;exitY=1.014;exitDx=0;exitDy=0;exitPerimeter=0;entryX=0.113;entryY=1.014;entryDx=0;entryDy=0;entryPerimeter=0;" edge="1" parent="1" target="I4kw4sfv-XJ1i7Al1kqw-174">
          <mxGeometry relative="1" as="geometry">
            <mxPoint x="5120" y="790" as="sourcePoint" />
            <Array as="points">
              <mxPoint x="5120" y="140" />
              <mxPoint x="2270" y="150" />
              <mxPoint x="320" y="150" />
              <mxPoint x="320" y="630" />
            </Array>
          </mxGeometry>
        </mxCell>
        <mxCell id="I4kw4sfv-XJ1i7Al1kqw-174" value="M12" style="shape=trapezoid;perimeter=trapezoidPerimeter;whiteSpace=wrap;html=1;fixedSize=1;direction=south;fillColor=#dae8fc;strokeColor=#6c8ebf;" vertex="1" parent="1">
          <mxGeometry x="430" y="600" width="51" height="255" as="geometry" />
        </mxCell>
        <mxCell id="I4kw4sfv-XJ1i7Al1kqw-177" style="edgeStyle=none;rounded=0;orthogonalLoop=1;jettySize=auto;html=1;exitX=0.5;exitY=1;exitDx=0;exitDy=0;entryX=0.689;entryY=1.032;entryDx=0;entryDy=0;entryPerimeter=0;" edge="1" parent="1" source="I4kw4sfv-XJ1i7Al1kqw-175" target="I4kw4sfv-XJ1i7Al1kqw-174">
          <mxGeometry relative="1" as="geometry" />
        </mxCell>
        <mxCell id="I4kw4sfv-XJ1i7Al1kqw-344" value="Adder_out" style="edgeLabel;html=1;align=center;verticalAlign=middle;resizable=0;points=[];" vertex="1" connectable="0" parent="I4kw4sfv-XJ1i7Al1kqw-177">
          <mxGeometry x="-0.2364" y="-1" relative="1" as="geometry">
            <mxPoint x="11" y="9" as="offset" />
          </mxGeometry>
        </mxCell>
        <mxCell id="I4kw4sfv-XJ1i7Al1kqw-175" value="Adder" style="shape=offPageConnector;whiteSpace=wrap;html=1;direction=north;" vertex="1" parent="1">
          <mxGeometry x="300" y="685" width="80" height="180" as="geometry" />
        </mxCell>
        <mxCell id="I4kw4sfv-XJ1i7Al1kqw-182" style="edgeStyle=none;rounded=0;orthogonalLoop=1;jettySize=auto;html=1;entryX=0.283;entryY=0.011;entryDx=0;entryDy=0;entryPerimeter=0;" edge="1" parent="1" source="I4kw4sfv-XJ1i7Al1kqw-178" target="I4kw4sfv-XJ1i7Al1kqw-175">
          <mxGeometry relative="1" as="geometry" />
        </mxCell>
        <mxCell id="I4kw4sfv-XJ1i7Al1kqw-183" value="Adder_B" style="edgeLabel;html=1;align=center;verticalAlign=middle;resizable=0;points=[];" vertex="1" connectable="0" parent="I4kw4sfv-XJ1i7Al1kqw-182">
          <mxGeometry x="-0.5228" relative="1" as="geometry">
            <mxPoint x="13" as="offset" />
          </mxGeometry>
        </mxCell>
        <mxCell id="I4kw4sfv-XJ1i7Al1kqw-185" style="edgeStyle=none;rounded=0;orthogonalLoop=1;jettySize=auto;html=1;exitX=0;exitY=0.5;exitDx=0;exitDy=0;entryX=0;entryY=0.5;entryDx=0;entryDy=0;" edge="1" parent="1" target="I4kw4sfv-XJ1i7Al1kqw-178">
          <mxGeometry relative="1" as="geometry">
            <mxPoint x="30" y="814" as="sourcePoint" />
          </mxGeometry>
        </mxCell>
        <mxCell id="I4kw4sfv-XJ1i7Al1kqw-178" value="&lt;font style=&quot;font-size: 14px;&quot;&gt;Decrement by 2&lt;/font&gt;" style="rounded=0;whiteSpace=wrap;html=1;" vertex="1" parent="1">
          <mxGeometry x="120" y="780" width="110" height="69" as="geometry" />
        </mxCell>
        <mxCell id="I4kw4sfv-XJ1i7Al1kqw-180" style="edgeStyle=none;rounded=0;orthogonalLoop=1;jettySize=auto;html=1;exitX=0.5;exitY=0;exitDx=0;exitDy=0;entryX=0.802;entryY=-0.025;entryDx=0;entryDy=0;entryPerimeter=0;" edge="1" parent="1" source="I4kw4sfv-XJ1i7Al1kqw-179" target="I4kw4sfv-XJ1i7Al1kqw-175">
          <mxGeometry relative="1" as="geometry" />
        </mxCell>
        <mxCell id="I4kw4sfv-XJ1i7Al1kqw-181" value="Adder_A" style="edgeLabel;html=1;align=center;verticalAlign=middle;resizable=0;points=[];" vertex="1" connectable="0" parent="I4kw4sfv-XJ1i7Al1kqw-180">
          <mxGeometry x="-0.3756" y="3" relative="1" as="geometry">
            <mxPoint as="offset" />
          </mxGeometry>
        </mxCell>
        <mxCell id="I4kw4sfv-XJ1i7Al1kqw-187" style="edgeStyle=none;rounded=0;orthogonalLoop=1;jettySize=auto;html=1;exitX=0.75;exitY=1;exitDx=0;exitDy=0;entryX=0.75;entryY=1;entryDx=0;entryDy=0;" edge="1" parent="1" target="I4kw4sfv-XJ1i7Al1kqw-179">
          <mxGeometry relative="1" as="geometry">
            <mxPoint x="100" y="740" as="sourcePoint" />
          </mxGeometry>
        </mxCell>
        <mxCell id="I4kw4sfv-XJ1i7Al1kqw-179" value="M9" style="shape=trapezoid;perimeter=trapezoidPerimeter;whiteSpace=wrap;html=1;fixedSize=1;direction=south;fillColor=#dae8fc;strokeColor=#6c8ebf;" vertex="1" parent="1">
          <mxGeometry x="165" y="680" width="30" height="81" as="geometry" />
        </mxCell>
        <mxCell id="I4kw4sfv-XJ1i7Al1kqw-188" value="&lt;font style=&quot;font-size: 18px;&quot;&gt;2&lt;/font&gt;" style="text;html=1;align=center;verticalAlign=middle;resizable=0;points=[];autosize=1;strokeColor=none;fillColor=none;" vertex="1" parent="1">
          <mxGeometry x="70" y="721" width="30" height="40" as="geometry" />
        </mxCell>
        <mxCell id="I4kw4sfv-XJ1i7Al1kqw-189" value="2" style="text;html=1;align=center;verticalAlign=middle;resizable=0;points=[];autosize=1;strokeColor=none;fillColor=none;" vertex="1" parent="1">
          <mxGeometry x="150" y="726" width="30" height="30" as="geometry" />
        </mxCell>
        <mxCell id="I4kw4sfv-XJ1i7Al1kqw-191" value="" style="edgeStyle=none;rounded=0;orthogonalLoop=1;jettySize=auto;html=1;" edge="1" parent="1" source="I4kw4sfv-XJ1i7Al1kqw-190" target="I4kw4sfv-XJ1i7Al1kqw-189">
          <mxGeometry relative="1" as="geometry">
            <Array as="points">
              <mxPoint x="170" y="755" />
            </Array>
          </mxGeometry>
        </mxCell>
        <mxCell id="I4kw4sfv-XJ1i7Al1kqw-190" value="&lt;font style=&quot;font-size: 14px;&quot;&gt;+4&lt;/font&gt;" style="text;html=1;align=center;verticalAlign=middle;resizable=0;points=[];autosize=1;strokeColor=none;fillColor=none;" vertex="1" parent="1">
          <mxGeometry x="60" y="740" width="40" height="30" as="geometry" />
        </mxCell>
        <mxCell id="I4kw4sfv-XJ1i7Al1kqw-192" value="3" style="text;html=1;align=center;verticalAlign=middle;resizable=0;points=[];autosize=1;strokeColor=none;fillColor=none;" vertex="1" parent="1">
          <mxGeometry x="160" y="740" width="30" height="30" as="geometry" />
        </mxCell>
        <mxCell id="I4kw4sfv-XJ1i7Al1kqw-194" value="1" style="text;html=1;align=center;verticalAlign=middle;resizable=0;points=[];autosize=1;strokeColor=none;fillColor=none;" vertex="1" parent="1">
          <mxGeometry x="150" y="707" width="30" height="30" as="geometry" />
        </mxCell>
        <mxCell id="I4kw4sfv-XJ1i7Al1kqw-198" value="0" style="text;html=1;align=center;verticalAlign=middle;resizable=0;points=[];autosize=1;strokeColor=none;fillColor=none;" vertex="1" parent="1">
          <mxGeometry x="150" y="685" width="30" height="30" as="geometry" />
        </mxCell>
        <mxCell id="I4kw4sfv-XJ1i7Al1kqw-200" value="&lt;font style=&quot;font-size: 14px;&quot;&gt;4&lt;/font&gt;" style="text;html=1;align=center;verticalAlign=middle;resizable=0;points=[];autosize=1;strokeColor=none;fillColor=none;" vertex="1" parent="1">
          <mxGeometry x="420" y="761" width="30" height="30" as="geometry" />
        </mxCell>
        <mxCell id="I4kw4sfv-XJ1i7Al1kqw-201" value="&lt;font style=&quot;font-size: 36px;&quot;&gt;P4&lt;/font&gt;" style="text;html=1;strokeColor=none;fillColor=none;align=center;verticalAlign=middle;whiteSpace=wrap;rounded=0;" vertex="1" parent="1">
          <mxGeometry x="3820" y="380" width="180" height="110" as="geometry" />
        </mxCell>
        <mxCell id="I4kw4sfv-XJ1i7Al1kqw-203" value="3" style="text;html=1;align=center;verticalAlign=middle;resizable=0;points=[];autosize=1;strokeColor=none;fillColor=none;" vertex="1" parent="1">
          <mxGeometry x="420" y="735" width="30" height="30" as="geometry" />
        </mxCell>
        <mxCell id="I4kw4sfv-XJ1i7Al1kqw-209" value="2" style="text;html=1;align=center;verticalAlign=middle;resizable=0;points=[];autosize=1;strokeColor=none;fillColor=none;" vertex="1" parent="1">
          <mxGeometry x="420" y="685" width="30" height="30" as="geometry" />
        </mxCell>
        <mxCell id="I4kw4sfv-XJ1i7Al1kqw-217" style="edgeStyle=none;rounded=0;orthogonalLoop=1;jettySize=auto;html=1;exitX=0.25;exitY=0;exitDx=0;exitDy=0;entryX=0.5;entryY=1;entryDx=0;entryDy=0;strokeColor=#3333FF;" edge="1" parent="1" source="I4kw4sfv-XJ1i7Al1kqw-174" target="I4kw4sfv-XJ1i7Al1kqw-55">
          <mxGeometry relative="1" as="geometry">
            <Array as="points">
              <mxPoint x="1885" y="660" />
            </Array>
          </mxGeometry>
        </mxCell>
        <mxCell id="I4kw4sfv-XJ1i7Al1kqw-218" value="&lt;font style=&quot;font-size: 48px;&quot;&gt;M12_out&lt;/font&gt;" style="edgeLabel;html=1;align=center;verticalAlign=middle;resizable=0;points=[];" vertex="1" connectable="0" parent="I4kw4sfv-XJ1i7Al1kqw-217">
          <mxGeometry x="-0.203" y="-2" relative="1" as="geometry">
            <mxPoint x="1" as="offset" />
          </mxGeometry>
        </mxCell>
        <mxCell id="I4kw4sfv-XJ1i7Al1kqw-221" style="edgeStyle=none;rounded=0;orthogonalLoop=1;jettySize=auto;html=1;exitX=1;exitY=0.25;exitDx=0;exitDy=0;" edge="1" parent="1" source="I4kw4sfv-XJ1i7Al1kqw-7" target="I4kw4sfv-XJ1i7Al1kqw-7">
          <mxGeometry relative="1" as="geometry" />
        </mxCell>
        <mxCell id="I4kw4sfv-XJ1i7Al1kqw-223" style="edgeStyle=none;rounded=0;orthogonalLoop=1;jettySize=auto;html=1;exitX=1;exitY=0.045;exitDx=0;exitDy=0;exitPerimeter=0;entryX=0;entryY=0.21;entryDx=0;entryDy=3;entryPerimeter=0;" edge="1" parent="1" source="I4kw4sfv-XJ1i7Al1kqw-7" target="I4kw4sfv-XJ1i7Al1kqw-222">
          <mxGeometry relative="1" as="geometry" />
        </mxCell>
        <mxCell id="I4kw4sfv-XJ1i7Al1kqw-224" value="&lt;font style=&quot;font-size: 36px;&quot;&gt;P2_7to0&lt;/font&gt;" style="edgeLabel;html=1;align=center;verticalAlign=middle;resizable=0;points=[];" vertex="1" connectable="0" parent="I4kw4sfv-XJ1i7Al1kqw-223">
          <mxGeometry x="-0.5261" y="-2" relative="1" as="geometry">
            <mxPoint as="offset" />
          </mxGeometry>
        </mxCell>
        <mxCell id="I4kw4sfv-XJ1i7Al1kqw-228" style="edgeStyle=none;rounded=0;orthogonalLoop=1;jettySize=auto;html=1;exitX=0.25;exitY=0;exitDx=0;exitDy=0;entryX=0;entryY=0.63;entryDx=0;entryDy=3;entryPerimeter=0;" edge="1" parent="1" source="I4kw4sfv-XJ1i7Al1kqw-157" target="I4kw4sfv-XJ1i7Al1kqw-222">
          <mxGeometry relative="1" as="geometry">
            <Array as="points">
              <mxPoint x="2008" y="606" />
            </Array>
          </mxGeometry>
        </mxCell>
        <mxCell id="I4kw4sfv-XJ1i7Al1kqw-229" value="&lt;font style=&quot;font-size: 18px;&quot;&gt;Shifter_out&lt;/font&gt;" style="edgeLabel;html=1;align=center;verticalAlign=middle;resizable=0;points=[];" vertex="1" connectable="0" parent="I4kw4sfv-XJ1i7Al1kqw-228">
          <mxGeometry x="-0.8526" y="2" relative="1" as="geometry">
            <mxPoint x="-16" y="-1" as="offset" />
          </mxGeometry>
        </mxCell>
        <mxCell id="I4kw4sfv-XJ1i7Al1kqw-230" style="edgeStyle=none;rounded=0;orthogonalLoop=1;jettySize=auto;html=1;exitX=0.3888888888888889;exitY=1;exitDx=10;exitDy=0;exitPerimeter=0;" edge="1" parent="1" source="I4kw4sfv-XJ1i7Al1kqw-222">
          <mxGeometry relative="1" as="geometry">
            <mxPoint x="2215" y="680" as="targetPoint" />
          </mxGeometry>
        </mxCell>
        <mxCell id="I4kw4sfv-XJ1i7Al1kqw-231" value="&lt;font style=&quot;font-size: 24px;&quot;&gt;S0&lt;/font&gt;" style="edgeLabel;html=1;align=center;verticalAlign=middle;resizable=0;points=[];" vertex="1" connectable="0" parent="I4kw4sfv-XJ1i7Al1kqw-230">
          <mxGeometry x="-0.4465" y="1" relative="1" as="geometry">
            <mxPoint as="offset" />
          </mxGeometry>
        </mxCell>
        <mxCell id="I4kw4sfv-XJ1i7Al1kqw-232" style="edgeStyle=none;rounded=0;orthogonalLoop=1;jettySize=auto;html=1;exitX=1;exitY=0.5;exitDx=0;exitDy=-5;exitPerimeter=0;entryX=0.008;entryY=0.103;entryDx=0;entryDy=0;entryPerimeter=0;" edge="1" parent="1" source="I4kw4sfv-XJ1i7Al1kqw-222" target="I4kw4sfv-XJ1i7Al1kqw-66">
          <mxGeometry relative="1" as="geometry" />
        </mxCell>
        <mxCell id="I4kw4sfv-XJ1i7Al1kqw-233" value="&lt;font style=&quot;font-size: 14px;&quot;&gt;7-0 M1_out&lt;/font&gt;" style="edgeLabel;html=1;align=center;verticalAlign=middle;resizable=0;points=[];" vertex="1" connectable="0" parent="I4kw4sfv-XJ1i7Al1kqw-232">
          <mxGeometry x="-0.531" y="1" relative="1" as="geometry">
            <mxPoint x="11" as="offset" />
          </mxGeometry>
        </mxCell>
        <mxCell id="I4kw4sfv-XJ1i7Al1kqw-222" value="M1" style="shadow=0;dashed=0;align=center;html=1;strokeWidth=1;shape=mxgraph.electrical.abstract.mux2;whiteSpace=wrap;" vertex="1" parent="1">
          <mxGeometry x="2170" y="540" width="90" height="100" as="geometry" />
        </mxCell>
        <mxCell id="I4kw4sfv-XJ1i7Al1kqw-235" value="5" style="text;html=1;align=center;verticalAlign=middle;resizable=0;points=[];autosize=1;strokeColor=none;fillColor=none;" vertex="1" parent="1">
          <mxGeometry x="2140" y="1190" width="30" height="30" as="geometry" />
        </mxCell>
        <mxCell id="I4kw4sfv-XJ1i7Al1kqw-256" style="edgeStyle=none;rounded=0;orthogonalLoop=1;jettySize=auto;html=1;exitX=1;exitY=0.5;exitDx=0;exitDy=0;entryX=0.381;entryY=0.949;entryDx=0;entryDy=0;entryPerimeter=0;" edge="1" parent="1" source="I4kw4sfv-XJ1i7Al1kqw-243" target="I4kw4sfv-XJ1i7Al1kqw-254">
          <mxGeometry relative="1" as="geometry" />
        </mxCell>
        <mxCell id="I4kw4sfv-XJ1i7Al1kqw-257" value="&lt;font style=&quot;font-size: 18px;&quot;&gt;Data_out&lt;/font&gt;" style="edgeLabel;html=1;align=center;verticalAlign=middle;resizable=0;points=[];" vertex="1" connectable="0" parent="I4kw4sfv-XJ1i7Al1kqw-256">
          <mxGeometry x="-0.5255" y="2" relative="1" as="geometry">
            <mxPoint as="offset" />
          </mxGeometry>
        </mxCell>
        <mxCell id="I4kw4sfv-XJ1i7Al1kqw-243" value="&lt;font style=&quot;font-size: 24px;&quot;&gt;Data Memory&lt;/font&gt;" style="rounded=0;whiteSpace=wrap;html=1;" vertex="1" parent="1">
          <mxGeometry x="4430" y="640" width="300" height="280" as="geometry" />
        </mxCell>
        <mxCell id="I4kw4sfv-XJ1i7Al1kqw-248" style="edgeStyle=none;rounded=0;orthogonalLoop=1;jettySize=auto;html=1;exitX=1.008;exitY=0.274;exitDx=0;exitDy=0;entryX=0.5;entryY=1;entryDx=0;entryDy=0;exitPerimeter=0;" edge="1" parent="1">
          <mxGeometry relative="1" as="geometry">
            <mxPoint x="4022.84" y="737.3000000000002" as="sourcePoint" />
            <mxPoint x="4191" y="737.9999999999998" as="targetPoint" />
          </mxGeometry>
        </mxCell>
        <mxCell id="I4kw4sfv-XJ1i7Al1kqw-249" value="&lt;font style=&quot;font-size: 24px;&quot;&gt;Out_P4&lt;/font&gt;" style="edgeLabel;html=1;align=center;verticalAlign=middle;resizable=0;points=[];" vertex="1" connectable="0" parent="I4kw4sfv-XJ1i7Al1kqw-248">
          <mxGeometry x="-0.2784" relative="1" as="geometry">
            <mxPoint as="offset" />
          </mxGeometry>
        </mxCell>
        <mxCell id="I4kw4sfv-XJ1i7Al1kqw-252" style="edgeStyle=none;rounded=0;orthogonalLoop=1;jettySize=auto;html=1;entryX=-0.002;entryY=0.338;entryDx=0;entryDy=0;entryPerimeter=0;" edge="1" parent="1" target="I4kw4sfv-XJ1i7Al1kqw-243">
          <mxGeometry relative="1" as="geometry">
            <mxPoint x="4270" y="735" as="sourcePoint" />
          </mxGeometry>
        </mxCell>
        <mxCell id="I4kw4sfv-XJ1i7Al1kqw-253" value="&lt;font style=&quot;font-size: 18px;&quot;&gt;M16_out&lt;/font&gt;" style="edgeLabel;html=1;align=center;verticalAlign=middle;resizable=0;points=[];" vertex="1" connectable="0" parent="I4kw4sfv-XJ1i7Al1kqw-252">
          <mxGeometry x="-0.6059" y="-2" relative="1" as="geometry">
            <mxPoint x="19" as="offset" />
          </mxGeometry>
        </mxCell>
        <mxCell id="I4kw4sfv-XJ1i7Al1kqw-245" value="&lt;font style=&quot;font-size: 18px;&quot;&gt;M16&lt;/font&gt;" style="shape=trapezoid;perimeter=trapezoidPerimeter;whiteSpace=wrap;html=1;fixedSize=1;direction=south;" vertex="1" parent="1">
          <mxGeometry x="4190" y="656" width="80" height="164" as="geometry" />
        </mxCell>
        <mxCell id="I4kw4sfv-XJ1i7Al1kqw-250" value="0" style="text;html=1;align=center;verticalAlign=middle;resizable=0;points=[];autosize=1;strokeColor=none;fillColor=none;" vertex="1" parent="1">
          <mxGeometry x="4180" y="685" width="30" height="30" as="geometry" />
        </mxCell>
        <mxCell id="I4kw4sfv-XJ1i7Al1kqw-251" value="1" style="text;html=1;align=center;verticalAlign=middle;resizable=0;points=[];autosize=1;strokeColor=none;fillColor=none;" vertex="1" parent="1">
          <mxGeometry x="4180" y="720" width="30" height="30" as="geometry" />
        </mxCell>
        <mxCell id="I4kw4sfv-XJ1i7Al1kqw-259" style="edgeStyle=none;rounded=0;orthogonalLoop=1;jettySize=auto;html=1;exitX=0.75;exitY=1;exitDx=0;exitDy=0;entryX=0.75;entryY=1;entryDx=0;entryDy=0;" edge="1" parent="1" target="I4kw4sfv-XJ1i7Al1kqw-254">
          <mxGeometry relative="1" as="geometry">
            <mxPoint x="4140" y="740" as="sourcePoint" />
            <Array as="points">
              <mxPoint x="4140" y="1090" />
              <mxPoint x="4530" y="1090" />
              <mxPoint x="4820" y="1090" />
              <mxPoint x="4820" y="826" />
            </Array>
          </mxGeometry>
        </mxCell>
        <mxCell id="I4kw4sfv-XJ1i7Al1kqw-261" value="&lt;font style=&quot;font-size: 24px;&quot;&gt;Out_P4&lt;/font&gt;" style="edgeLabel;html=1;align=center;verticalAlign=middle;resizable=0;points=[];" vertex="1" connectable="0" parent="I4kw4sfv-XJ1i7Al1kqw-259">
          <mxGeometry x="-0.0754" relative="1" as="geometry">
            <mxPoint as="offset" />
          </mxGeometry>
        </mxCell>
        <mxCell id="I4kw4sfv-XJ1i7Al1kqw-273" style="edgeStyle=none;rounded=0;orthogonalLoop=1;jettySize=auto;html=1;exitX=0.5;exitY=0;exitDx=0;exitDy=0;entryX=-0.003;entryY=0.316;entryDx=0;entryDy=0;entryPerimeter=0;" edge="1" parent="1" source="I4kw4sfv-XJ1i7Al1kqw-254" target="I4kw4sfv-XJ1i7Al1kqw-271">
          <mxGeometry relative="1" as="geometry" />
        </mxCell>
        <mxCell id="I4kw4sfv-XJ1i7Al1kqw-274" value="&lt;font style=&quot;font-size: 24px;&quot;&gt;M7_out&lt;/font&gt;" style="edgeLabel;html=1;align=center;verticalAlign=middle;resizable=0;points=[];" vertex="1" connectable="0" parent="I4kw4sfv-XJ1i7Al1kqw-273">
          <mxGeometry x="-0.3035" relative="1" as="geometry">
            <mxPoint x="-1" as="offset" />
          </mxGeometry>
        </mxCell>
        <mxCell id="I4kw4sfv-XJ1i7Al1kqw-254" value="M7" style="shape=trapezoid;perimeter=trapezoidPerimeter;whiteSpace=wrap;html=1;fixedSize=1;direction=south;" vertex="1" parent="1">
          <mxGeometry x="4910" y="733" width="50" height="124" as="geometry" />
        </mxCell>
        <mxCell id="I4kw4sfv-XJ1i7Al1kqw-258" value="0" style="text;html=1;align=center;verticalAlign=middle;resizable=0;points=[];autosize=1;strokeColor=none;fillColor=none;" vertex="1" parent="1">
          <mxGeometry x="4900" y="765" width="30" height="30" as="geometry" />
        </mxCell>
        <mxCell id="I4kw4sfv-XJ1i7Al1kqw-260" value="1" style="text;html=1;align=center;verticalAlign=middle;resizable=0;points=[];autosize=1;strokeColor=none;fillColor=none;" vertex="1" parent="1">
          <mxGeometry x="4900" y="810" width="30" height="30" as="geometry" />
        </mxCell>
        <mxCell id="I4kw4sfv-XJ1i7Al1kqw-263" style="edgeStyle=none;rounded=0;orthogonalLoop=1;jettySize=auto;html=1;exitX=1.011;exitY=0.662;exitDx=0;exitDy=0;entryX=0.25;entryY=1;entryDx=0;entryDy=0;exitPerimeter=0;" edge="1" parent="1" source="I4kw4sfv-XJ1i7Al1kqw-152" target="I4kw4sfv-XJ1i7Al1kqw-262">
          <mxGeometry relative="1" as="geometry" />
        </mxCell>
        <mxCell id="I4kw4sfv-XJ1i7Al1kqw-265" value="&lt;font style=&quot;font-size: 24px;&quot;&gt;D1_P4&lt;/font&gt;" style="edgeLabel;html=1;align=center;verticalAlign=middle;resizable=0;points=[];" vertex="1" connectable="0" parent="I4kw4sfv-XJ1i7Al1kqw-263">
          <mxGeometry x="-0.2787" y="-2" relative="1" as="geometry">
            <mxPoint x="1" as="offset" />
          </mxGeometry>
        </mxCell>
        <mxCell id="I4kw4sfv-XJ1i7Al1kqw-264" style="edgeStyle=none;rounded=0;orthogonalLoop=1;jettySize=auto;html=1;entryX=0.75;entryY=1;entryDx=0;entryDy=0;" edge="1" parent="1" target="I4kw4sfv-XJ1i7Al1kqw-262">
          <mxGeometry relative="1" as="geometry">
            <mxPoint x="4020" y="1410" as="sourcePoint" />
          </mxGeometry>
        </mxCell>
        <mxCell id="I4kw4sfv-XJ1i7Al1kqw-266" value="&lt;font style=&quot;font-size: 24px;&quot;&gt;D2_P4&lt;/font&gt;" style="edgeLabel;html=1;align=center;verticalAlign=middle;resizable=0;points=[];" vertex="1" connectable="0" parent="I4kw4sfv-XJ1i7Al1kqw-264">
          <mxGeometry x="-0.3044" y="-3" relative="1" as="geometry">
            <mxPoint x="1" as="offset" />
          </mxGeometry>
        </mxCell>
        <mxCell id="I4kw4sfv-XJ1i7Al1kqw-269" style="edgeStyle=none;rounded=0;orthogonalLoop=1;jettySize=auto;html=1;exitX=0.5;exitY=0;exitDx=0;exitDy=0;" edge="1" parent="1" source="I4kw4sfv-XJ1i7Al1kqw-262">
          <mxGeometry relative="1" as="geometry">
            <mxPoint x="4580" y="930" as="targetPoint" />
            <Array as="points">
              <mxPoint x="4580" y="1355" />
            </Array>
          </mxGeometry>
        </mxCell>
        <mxCell id="I4kw4sfv-XJ1i7Al1kqw-270" value="&lt;font style=&quot;font-size: 48px;&quot;&gt;Data_in&lt;/font&gt;" style="edgeLabel;html=1;align=center;verticalAlign=middle;resizable=0;points=[];" vertex="1" connectable="0" parent="I4kw4sfv-XJ1i7Al1kqw-269">
          <mxGeometry x="0.1409" y="2" relative="1" as="geometry">
            <mxPoint y="1" as="offset" />
          </mxGeometry>
        </mxCell>
        <mxCell id="I4kw4sfv-XJ1i7Al1kqw-262" value="&lt;font style=&quot;font-size: 36px;&quot;&gt;M8&lt;/font&gt;" style="shape=trapezoid;perimeter=trapezoidPerimeter;whiteSpace=wrap;html=1;fixedSize=1;direction=south;" vertex="1" parent="1">
          <mxGeometry x="4240" y="1245" width="100" height="220" as="geometry" />
        </mxCell>
        <mxCell id="I4kw4sfv-XJ1i7Al1kqw-267" value="0" style="text;html=1;align=center;verticalAlign=middle;resizable=0;points=[];autosize=1;strokeColor=none;fillColor=none;" vertex="1" parent="1">
          <mxGeometry x="4235" y="1290" width="30" height="30" as="geometry" />
        </mxCell>
        <mxCell id="I4kw4sfv-XJ1i7Al1kqw-268" value="1" style="text;html=1;align=center;verticalAlign=middle;resizable=0;points=[];autosize=1;strokeColor=none;fillColor=none;" vertex="1" parent="1">
          <mxGeometry x="4235" y="1400" width="30" height="30" as="geometry" />
        </mxCell>
        <mxCell id="I4kw4sfv-XJ1i7Al1kqw-275" style="edgeStyle=none;rounded=0;orthogonalLoop=1;jettySize=auto;html=1;exitX=-0.003;exitY=0.127;exitDx=0;exitDy=0;exitPerimeter=0;entryX=-0.003;entryY=0.127;entryDx=0;entryDy=0;entryPerimeter=0;" edge="1" parent="1" target="I4kw4sfv-XJ1i7Al1kqw-271">
          <mxGeometry relative="1" as="geometry">
            <mxPoint x="4010" y="517" as="sourcePoint" />
          </mxGeometry>
        </mxCell>
        <mxCell id="I4kw4sfv-XJ1i7Al1kqw-276" value="&lt;font style=&quot;font-size: 36px;&quot;&gt;PC_Instruction_CB_Counter_MSB_C_Z_P4&lt;/font&gt;" style="edgeLabel;html=1;align=center;verticalAlign=middle;resizable=0;points=[];" vertex="1" connectable="0" parent="I4kw4sfv-XJ1i7Al1kqw-275">
          <mxGeometry x="-0.3152" y="-2" relative="1" as="geometry">
            <mxPoint x="-1" as="offset" />
          </mxGeometry>
        </mxCell>
        <mxCell id="I4kw4sfv-XJ1i7Al1kqw-271" value="&lt;font style=&quot;font-size: 36px;&quot;&gt;1. PC&lt;br style=&quot;border-color: var(--border-color);&quot;&gt;2. Instruction&lt;br style=&quot;border-color: var(--border-color);&quot;&gt;3. Control Bit&lt;br style=&quot;border-color: var(--border-color);&quot;&gt;4. Counter&lt;br style=&quot;border-color: var(--border-color);&quot;&gt;5. MSB&lt;br&gt;6.C&lt;br&gt;7.Z&lt;br&gt;8. Out&lt;br&gt;&lt;/font&gt;" style="rounded=0;whiteSpace=wrap;html=1;fillColor=#ffe6cc;strokeColor=#d79b00;" vertex="1" parent="1">
          <mxGeometry x="5170" y="330" width="300" height="1470" as="geometry" />
        </mxCell>
        <mxCell id="I4kw4sfv-XJ1i7Al1kqw-272" value="&lt;font style=&quot;font-size: 48px;&quot;&gt;P5&lt;/font&gt;" style="text;html=1;strokeColor=none;fillColor=none;align=center;verticalAlign=middle;whiteSpace=wrap;rounded=0;" vertex="1" parent="1">
          <mxGeometry x="5220" y="400" width="190" height="110" as="geometry" />
        </mxCell>
        <mxCell id="I4kw4sfv-XJ1i7Al1kqw-278" style="edgeStyle=none;rounded=0;orthogonalLoop=1;jettySize=auto;html=1;exitX=1.004;exitY=0.313;exitDx=0;exitDy=0;entryX=0.25;entryY=1;entryDx=0;entryDy=0;exitPerimeter=0;" edge="1" parent="1" source="I4kw4sfv-XJ1i7Al1kqw-271" target="I4kw4sfv-XJ1i7Al1kqw-277">
          <mxGeometry relative="1" as="geometry" />
        </mxCell>
        <mxCell id="I4kw4sfv-XJ1i7Al1kqw-279" value="&lt;font style=&quot;font-size: 18px;&quot;&gt;Counter_P5&lt;/font&gt;" style="edgeLabel;html=1;align=center;verticalAlign=middle;resizable=0;points=[];" vertex="1" connectable="0" parent="I4kw4sfv-XJ1i7Al1kqw-278">
          <mxGeometry x="-0.3991" y="4" relative="1" as="geometry">
            <mxPoint y="-7" as="offset" />
          </mxGeometry>
        </mxCell>
        <mxCell id="I4kw4sfv-XJ1i7Al1kqw-280" style="edgeStyle=none;rounded=0;orthogonalLoop=1;jettySize=auto;html=1;exitX=1;exitY=0.373;exitDx=0;exitDy=0;entryX=0.5;entryY=1;entryDx=0;entryDy=0;exitPerimeter=0;" edge="1" parent="1" source="I4kw4sfv-XJ1i7Al1kqw-271" target="I4kw4sfv-XJ1i7Al1kqw-277">
          <mxGeometry relative="1" as="geometry" />
        </mxCell>
        <mxCell id="I4kw4sfv-XJ1i7Al1kqw-281" value="&lt;font style=&quot;font-size: 18px;&quot;&gt;P5_11to9&lt;/font&gt;" style="edgeLabel;html=1;align=center;verticalAlign=middle;resizable=0;points=[];" vertex="1" connectable="0" parent="I4kw4sfv-XJ1i7Al1kqw-280">
          <mxGeometry x="-0.286" y="-4" relative="1" as="geometry">
            <mxPoint x="-1" as="offset" />
          </mxGeometry>
        </mxCell>
        <mxCell id="I4kw4sfv-XJ1i7Al1kqw-282" style="edgeStyle=none;rounded=0;orthogonalLoop=1;jettySize=auto;html=1;exitX=1.004;exitY=0.429;exitDx=0;exitDy=0;entryX=0.75;entryY=1;entryDx=0;entryDy=0;exitPerimeter=0;" edge="1" parent="1" source="I4kw4sfv-XJ1i7Al1kqw-271" target="I4kw4sfv-XJ1i7Al1kqw-277">
          <mxGeometry relative="1" as="geometry" />
        </mxCell>
        <mxCell id="I4kw4sfv-XJ1i7Al1kqw-283" value="&lt;font style=&quot;font-size: 18px;&quot;&gt;P5_8to6&lt;/font&gt;" style="edgeLabel;html=1;align=center;verticalAlign=middle;resizable=0;points=[];" vertex="1" connectable="0" parent="I4kw4sfv-XJ1i7Al1kqw-282">
          <mxGeometry x="-0.2603" y="-1" relative="1" as="geometry">
            <mxPoint as="offset" />
          </mxGeometry>
        </mxCell>
        <mxCell id="I4kw4sfv-XJ1i7Al1kqw-284" style="edgeStyle=none;rounded=0;orthogonalLoop=1;jettySize=auto;html=1;entryX=0.925;entryY=0.983;entryDx=0;entryDy=0;entryPerimeter=0;" edge="1" parent="1" target="I4kw4sfv-XJ1i7Al1kqw-277">
          <mxGeometry relative="1" as="geometry">
            <mxPoint x="5470" y="1020" as="sourcePoint" />
          </mxGeometry>
        </mxCell>
        <mxCell id="I4kw4sfv-XJ1i7Al1kqw-285" value="&lt;font style=&quot;font-size: 18px;&quot;&gt;P5_5to3&lt;/font&gt;" style="edgeLabel;html=1;align=center;verticalAlign=middle;resizable=0;points=[];" vertex="1" connectable="0" parent="I4kw4sfv-XJ1i7Al1kqw-284">
          <mxGeometry x="-0.1683" y="5" relative="1" as="geometry">
            <mxPoint x="-1" as="offset" />
          </mxGeometry>
        </mxCell>
        <mxCell id="I4kw4sfv-XJ1i7Al1kqw-297" style="edgeStyle=none;rounded=0;orthogonalLoop=1;jettySize=auto;html=1;exitX=0.5;exitY=0;exitDx=0;exitDy=0;entryX=0.25;entryY=1;entryDx=0;entryDy=0;strokeColor=#990099;" edge="1" parent="1" source="I4kw4sfv-XJ1i7Al1kqw-277" target="I4kw4sfv-XJ1i7Al1kqw-50">
          <mxGeometry relative="1" as="geometry">
            <Array as="points">
              <mxPoint x="6010" y="877" />
              <mxPoint x="6010" y="2510" />
              <mxPoint x="3920" y="2520" />
              <mxPoint x="1848" y="2520" />
            </Array>
          </mxGeometry>
        </mxCell>
        <mxCell id="I4kw4sfv-XJ1i7Al1kqw-298" value="&lt;font style=&quot;font-size: 72px;&quot;&gt;A3&lt;/font&gt;" style="edgeLabel;html=1;align=center;verticalAlign=middle;resizable=0;points=[];" vertex="1" connectable="0" parent="I4kw4sfv-XJ1i7Al1kqw-297">
          <mxGeometry x="0.2078" y="-15" relative="1" as="geometry">
            <mxPoint x="2" as="offset" />
          </mxGeometry>
        </mxCell>
        <mxCell id="I4kw4sfv-XJ1i7Al1kqw-277" value="&lt;font style=&quot;font-size: 24px;&quot;&gt;M10&lt;/font&gt;" style="shape=trapezoid;perimeter=trapezoidPerimeter;whiteSpace=wrap;html=1;fixedSize=1;direction=south;" vertex="1" parent="1">
          <mxGeometry x="5760" y="707" width="100" height="340" as="geometry" />
        </mxCell>
        <mxCell id="I4kw4sfv-XJ1i7Al1kqw-286" value="0" style="text;html=1;align=center;verticalAlign=middle;resizable=0;points=[];autosize=1;strokeColor=none;fillColor=none;" vertex="1" parent="1">
          <mxGeometry x="5760" y="780" width="30" height="30" as="geometry" />
        </mxCell>
        <mxCell id="I4kw4sfv-XJ1i7Al1kqw-287" value="1" style="text;html=1;align=center;verticalAlign=middle;resizable=0;points=[];autosize=1;strokeColor=none;fillColor=none;" vertex="1" parent="1">
          <mxGeometry x="5760" y="870" width="30" height="30" as="geometry" />
        </mxCell>
        <mxCell id="I4kw4sfv-XJ1i7Al1kqw-288" value="2" style="text;html=1;align=center;verticalAlign=middle;resizable=0;points=[];autosize=1;strokeColor=none;fillColor=none;" vertex="1" parent="1">
          <mxGeometry x="5760" y="950" width="30" height="30" as="geometry" />
        </mxCell>
        <mxCell id="I4kw4sfv-XJ1i7Al1kqw-289" value="3" style="text;html=1;align=center;verticalAlign=middle;resizable=0;points=[];autosize=1;strokeColor=none;fillColor=none;" vertex="1" parent="1">
          <mxGeometry x="5760" y="1005" width="30" height="30" as="geometry" />
        </mxCell>
        <mxCell id="I4kw4sfv-XJ1i7Al1kqw-291" style="edgeStyle=none;rounded=0;orthogonalLoop=1;jettySize=auto;html=1;exitX=1;exitY=0.643;exitDx=0;exitDy=0;exitPerimeter=0;entryX=0.958;entryY=0.507;entryDx=0;entryDy=0;entryPerimeter=0;" edge="1" parent="1" source="I4kw4sfv-XJ1i7Al1kqw-271" target="I4kw4sfv-XJ1i7Al1kqw-295">
          <mxGeometry relative="1" as="geometry" />
        </mxCell>
        <mxCell id="I4kw4sfv-XJ1i7Al1kqw-293" value="&lt;font style=&quot;font-size: 24px;&quot;&gt;ze_7_input&lt;/font&gt;" style="edgeLabel;html=1;align=center;verticalAlign=middle;resizable=0;points=[];" vertex="1" connectable="0" parent="I4kw4sfv-XJ1i7Al1kqw-291">
          <mxGeometry x="-0.2172" relative="1" as="geometry">
            <mxPoint x="-1" as="offset" />
          </mxGeometry>
        </mxCell>
        <mxCell id="I4kw4sfv-XJ1i7Al1kqw-326" value="ze_7_out" style="edgeLabel;html=1;align=center;verticalAlign=middle;resizable=0;points=[];" vertex="1" connectable="0" parent="I4kw4sfv-XJ1i7Al1kqw-291">
          <mxGeometry x="0.8151" y="1" relative="1" as="geometry">
            <mxPoint x="-18" as="offset" />
          </mxGeometry>
        </mxCell>
        <mxCell id="I4kw4sfv-XJ1i7Al1kqw-292" style="edgeStyle=none;rounded=0;orthogonalLoop=1;jettySize=auto;html=1;exitX=1;exitY=0.704;exitDx=0;exitDy=0;entryX=0.75;entryY=1;entryDx=0;entryDy=0;exitPerimeter=0;" edge="1" parent="1" source="I4kw4sfv-XJ1i7Al1kqw-271" target="I4kw4sfv-XJ1i7Al1kqw-290">
          <mxGeometry relative="1" as="geometry" />
        </mxCell>
        <mxCell id="I4kw4sfv-XJ1i7Al1kqw-294" value="&lt;font style=&quot;font-size: 24px;&quot;&gt;P5_Out&lt;/font&gt;" style="edgeLabel;html=1;align=center;verticalAlign=middle;resizable=0;points=[];" vertex="1" connectable="0" parent="I4kw4sfv-XJ1i7Al1kqw-292">
          <mxGeometry x="-0.2459" y="4" relative="1" as="geometry">
            <mxPoint x="-1" as="offset" />
          </mxGeometry>
        </mxCell>
        <mxCell id="I4kw4sfv-XJ1i7Al1kqw-299" style="edgeStyle=none;rounded=0;orthogonalLoop=1;jettySize=auto;html=1;exitX=0.5;exitY=0;exitDx=0;exitDy=0;entryX=0.75;entryY=1;entryDx=0;entryDy=0;strokeColor=#660066;" edge="1" parent="1" source="I4kw4sfv-XJ1i7Al1kqw-290" target="I4kw4sfv-XJ1i7Al1kqw-50">
          <mxGeometry relative="1" as="geometry">
            <Array as="points">
              <mxPoint x="5950" y="1320" />
              <mxPoint x="5950" y="2240" />
              <mxPoint x="3990" y="2240" />
              <mxPoint x="1923" y="2240" />
            </Array>
          </mxGeometry>
        </mxCell>
        <mxCell id="I4kw4sfv-XJ1i7Al1kqw-300" value="&lt;font style=&quot;font-size: 72px;&quot;&gt;D3&lt;/font&gt;" style="edgeLabel;html=1;align=center;verticalAlign=middle;resizable=0;points=[];" vertex="1" connectable="0" parent="I4kw4sfv-XJ1i7Al1kqw-299">
          <mxGeometry x="0.2055" y="-5" relative="1" as="geometry">
            <mxPoint as="offset" />
          </mxGeometry>
        </mxCell>
        <mxCell id="I4kw4sfv-XJ1i7Al1kqw-290" value="M11" style="shape=trapezoid;perimeter=trapezoidPerimeter;whiteSpace=wrap;html=1;fixedSize=1;direction=south;" vertex="1" parent="1">
          <mxGeometry x="5780" y="1230" width="90" height="180" as="geometry" />
        </mxCell>
        <mxCell id="I4kw4sfv-XJ1i7Al1kqw-295" value="0" style="text;html=1;align=center;verticalAlign=middle;resizable=0;points=[];autosize=1;strokeColor=none;fillColor=none;" vertex="1" parent="1">
          <mxGeometry x="5770" y="1260" width="30" height="30" as="geometry" />
        </mxCell>
        <mxCell id="I4kw4sfv-XJ1i7Al1kqw-296" value="1" style="text;html=1;align=center;verticalAlign=middle;resizable=0;points=[];autosize=1;strokeColor=none;fillColor=none;" vertex="1" parent="1">
          <mxGeometry x="5770" y="1350" width="30" height="30" as="geometry" />
        </mxCell>
        <mxCell id="I4kw4sfv-XJ1i7Al1kqw-302" value="0" style="text;html=1;align=center;verticalAlign=middle;resizable=0;points=[];autosize=1;strokeColor=none;fillColor=none;" vertex="1" parent="1">
          <mxGeometry x="2140" y="1035" width="30" height="30" as="geometry" />
        </mxCell>
        <mxCell id="I4kw4sfv-XJ1i7Al1kqw-214" value="1" style="text;html=1;align=center;verticalAlign=middle;resizable=0;points=[];autosize=1;strokeColor=none;fillColor=none;" vertex="1" parent="1">
          <mxGeometry x="420" y="650" width="30" height="30" as="geometry" />
        </mxCell>
        <mxCell id="I4kw4sfv-XJ1i7Al1kqw-306" value="0" style="text;html=1;align=center;verticalAlign=middle;resizable=0;points=[];autosize=1;strokeColor=none;fillColor=none;" vertex="1" parent="1">
          <mxGeometry x="420" y="620" width="30" height="30" as="geometry" />
        </mxCell>
        <mxCell id="I4kw4sfv-XJ1i7Al1kqw-307" value="0" style="text;html=1;align=center;verticalAlign=middle;resizable=0;points=[];autosize=1;strokeColor=none;fillColor=none;" vertex="1" parent="1">
          <mxGeometry x="1510" y="1043.5" width="30" height="30" as="geometry" />
        </mxCell>
        <mxCell id="I4kw4sfv-XJ1i7Al1kqw-308" value="1" style="text;html=1;align=center;verticalAlign=middle;resizable=0;points=[];autosize=1;strokeColor=none;fillColor=none;" vertex="1" parent="1">
          <mxGeometry x="1510" y="1130" width="30" height="30" as="geometry" />
        </mxCell>
        <mxCell id="I4kw4sfv-XJ1i7Al1kqw-314" value="0" style="text;html=1;align=center;verticalAlign=middle;resizable=0;points=[];autosize=1;strokeColor=none;fillColor=none;" vertex="1" parent="1">
          <mxGeometry x="2210" y="840" width="30" height="30" as="geometry" />
        </mxCell>
        <mxCell id="I4kw4sfv-XJ1i7Al1kqw-316" value="1" style="text;html=1;align=center;verticalAlign=middle;resizable=0;points=[];autosize=1;strokeColor=none;fillColor=none;" vertex="1" parent="1">
          <mxGeometry x="2210" y="870" width="30" height="30" as="geometry" />
        </mxCell>
        <mxCell id="I4kw4sfv-XJ1i7Al1kqw-318" value="2" style="text;html=1;align=center;verticalAlign=middle;resizable=0;points=[];autosize=1;strokeColor=none;fillColor=none;" vertex="1" parent="1">
          <mxGeometry x="2210" y="900" width="30" height="30" as="geometry" />
        </mxCell>
        <mxCell id="I4kw4sfv-XJ1i7Al1kqw-320" value="3" style="text;html=1;align=center;verticalAlign=middle;resizable=0;points=[];autosize=1;strokeColor=none;fillColor=none;" vertex="1" parent="1">
          <mxGeometry x="2210" y="920" width="30" height="30" as="geometry" />
        </mxCell>
        <mxCell id="I4kw4sfv-XJ1i7Al1kqw-321" style="edgeStyle=none;rounded=0;orthogonalLoop=1;jettySize=auto;html=1;entryX=0.75;entryY=1;entryDx=0;entryDy=0;strokeColor=#00CC00;" edge="1" parent="1" target="I4kw4sfv-XJ1i7Al1kqw-56">
          <mxGeometry relative="1" as="geometry">
            <mxPoint x="2100" y="2240" as="sourcePoint" />
            <Array as="points">
              <mxPoint x="2100" y="1710" />
              <mxPoint x="2110" y="1171" />
            </Array>
          </mxGeometry>
        </mxCell>
        <mxCell id="I4kw4sfv-XJ1i7Al1kqw-323" value="4" style="text;html=1;align=center;verticalAlign=middle;resizable=0;points=[];autosize=1;strokeColor=none;fillColor=none;" vertex="1" parent="1">
          <mxGeometry x="2210" y="950" width="30" height="30" as="geometry" />
        </mxCell>
        <mxCell id="I4kw4sfv-XJ1i7Al1kqw-324" value="&lt;font style=&quot;font-size: 24px;&quot;&gt;ze-7&lt;/font&gt;" style="rhombus;whiteSpace=wrap;html=1;" vertex="1" parent="1">
          <mxGeometry x="5650" y="1235" width="80" height="80" as="geometry" />
        </mxCell>
        <mxCell id="I4kw4sfv-XJ1i7Al1kqw-327" value="SE6_9bit" style="rhombus;whiteSpace=wrap;html=1;shadow=1;" vertex="1" parent="1">
          <mxGeometry x="2630" y="830" width="50" height="40" as="geometry" />
        </mxCell>
        <mxCell id="I4kw4sfv-XJ1i7Al1kqw-330" value="SE7_6bit" style="whiteSpace=wrap;html=1;" vertex="1" parent="1">
          <mxGeometry x="2670" y="1050" width="50" height="30" as="geometry" />
        </mxCell>
        <mxCell id="I4kw4sfv-XJ1i7Al1kqw-332" value="" style="edgeStyle=none;rounded=0;orthogonalLoop=1;jettySize=auto;html=1;exitX=1;exitY=0.5;exitDx=0;exitDy=0;entryX=0;entryY=0.5;entryDx=0;entryDy=0;" edge="1" parent="1" source="I4kw4sfv-XJ1i7Al1kqw-66" target="I4kw4sfv-XJ1i7Al1kqw-329">
          <mxGeometry relative="1" as="geometry">
            <mxPoint x="2550" y="1070" as="sourcePoint" />
            <mxPoint x="2730" y="1066" as="targetPoint" />
            <Array as="points" />
          </mxGeometry>
        </mxCell>
        <mxCell id="I4kw4sfv-XJ1i7Al1kqw-333" value="S3_in" style="edgeLabel;html=1;align=center;verticalAlign=middle;resizable=0;points=[];" vertex="1" connectable="0" parent="I4kw4sfv-XJ1i7Al1kqw-332">
          <mxGeometry x="-0.3809" y="1" relative="1" as="geometry">
            <mxPoint as="offset" />
          </mxGeometry>
        </mxCell>
        <mxCell id="I4kw4sfv-XJ1i7Al1kqw-329" value="S3" style="ellipse;whiteSpace=wrap;html=1;" vertex="1" parent="1">
          <mxGeometry x="2600" y="1055" width="40" height="30" as="geometry" />
        </mxCell>
        <mxCell id="I4kw4sfv-XJ1i7Al1kqw-347" value="SE1_6bit" style="ellipse;whiteSpace=wrap;html=1;" vertex="1" parent="1">
          <mxGeometry x="80" y="580" width="70" height="50" as="geometry" />
        </mxCell>
        <mxCell id="I4kw4sfv-XJ1i7Al1kqw-348" value="S1(9to10)" style="rhombus;whiteSpace=wrap;html=1;" vertex="1" parent="1">
          <mxGeometry x="115" y="530" width="50" height="50" as="geometry" />
        </mxCell>
        <mxCell id="I4kw4sfv-XJ1i7Al1kqw-349" value="SE2_9bit" style="ellipse;whiteSpace=wrap;html=1;" vertex="1" parent="1">
          <mxGeometry x="80" y="120" width="80" height="80" as="geometry" />
        </mxCell>
        <mxCell id="I4kw4sfv-XJ1i7Al1kqw-353" value="S2(6to7)" style="rhombus;whiteSpace=wrap;html=1;" vertex="1" parent="1">
          <mxGeometry x="220" y="130" width="80" height="80" as="geometry" />
        </mxCell>
        <mxCell id="I4kw4sfv-XJ1i7Al1kqw-354" value="S1_out" style="text;html=1;align=center;verticalAlign=middle;resizable=0;points=[];autosize=1;strokeColor=none;fillColor=none;" vertex="1" parent="1">
          <mxGeometry x="60" y="560" width="60" height="30" as="geometry" />
        </mxCell>
        <mxCell id="I4kw4sfv-XJ1i7Al1kqw-359" value="SE3_7bit" style="ellipse;whiteSpace=wrap;html=1;" vertex="1" parent="1">
          <mxGeometry x="400" y="560" width="40" height="40" as="geometry" />
        </mxCell>
        <mxCell id="I4kw4sfv-XJ1i7Al1kqw-365" value="" style="edgeStyle=none;orthogonalLoop=1;jettySize=auto;html=1;rounded=0;" edge="1" parent="1">
          <mxGeometry width="100" relative="1" as="geometry">
            <mxPoint x="170" y="1430" as="sourcePoint" />
            <mxPoint x="390" y="1031.54" as="targetPoint" />
            <Array as="points" />
          </mxGeometry>
        </mxCell>
        <mxCell id="I4kw4sfv-XJ1i7Al1kqw-366" value="" style="edgeStyle=none;orthogonalLoop=1;jettySize=auto;html=1;rounded=0;" edge="1" parent="1">
          <mxGeometry width="100" relative="1" as="geometry">
            <mxPoint x="330" y="900" as="sourcePoint" />
            <mxPoint x="350" y="650" as="targetPoint" />
            <Array as="points" />
          </mxGeometry>
        </mxCell>
        <mxCell id="I4kw4sfv-XJ1i7Al1kqw-367" value="" style="edgeStyle=none;orthogonalLoop=1;jettySize=auto;html=1;rounded=0;" edge="1" parent="1">
          <mxGeometry width="100" relative="1" as="geometry">
            <mxPoint x="410" y="850" as="sourcePoint" />
            <mxPoint x="480" y="590" as="targetPoint" />
            <Array as="points" />
          </mxGeometry>
        </mxCell>
        <mxCell id="I4kw4sfv-XJ1i7Al1kqw-368" value="" style="edgeStyle=none;orthogonalLoop=1;jettySize=auto;html=1;rounded=0;" edge="1" parent="1">
          <mxGeometry width="100" relative="1" as="geometry">
            <mxPoint x="390" y="604.6" as="sourcePoint" />
            <mxPoint x="440" y="550" as="targetPoint" />
            <Array as="points" />
          </mxGeometry>
        </mxCell>
        <mxCell id="I4kw4sfv-XJ1i7Al1kqw-369" value="" style="edgeStyle=none;orthogonalLoop=1;jettySize=auto;html=1;rounded=0;" edge="1" parent="1">
          <mxGeometry width="100" relative="1" as="geometry">
            <mxPoint x="90" y="640" as="sourcePoint" />
            <mxPoint x="160" y="510" as="targetPoint" />
            <Array as="points" />
          </mxGeometry>
        </mxCell>
        <mxCell id="I4kw4sfv-XJ1i7Al1kqw-370" value="" style="edgeStyle=none;orthogonalLoop=1;jettySize=auto;html=1;rounded=0;" edge="1" parent="1">
          <mxGeometry width="100" relative="1" as="geometry">
            <mxPoint x="140" y="770" as="sourcePoint" />
            <mxPoint x="190" y="670" as="targetPoint" />
            <Array as="points" />
          </mxGeometry>
        </mxCell>
        <mxCell id="I4kw4sfv-XJ1i7Al1kqw-371" value="" style="edgeStyle=none;orthogonalLoop=1;jettySize=auto;html=1;rounded=0;" edge="1" parent="1">
          <mxGeometry width="100" relative="1" as="geometry">
            <mxPoint x="80" y="210" as="sourcePoint" />
            <mxPoint x="140" y="100" as="targetPoint" />
            <Array as="points" />
          </mxGeometry>
        </mxCell>
        <mxCell id="I4kw4sfv-XJ1i7Al1kqw-372" value="" style="edgeStyle=none;orthogonalLoop=1;jettySize=auto;html=1;rounded=0;" edge="1" parent="1">
          <mxGeometry width="100" relative="1" as="geometry">
            <mxPoint x="200" y="220" as="sourcePoint" />
            <mxPoint x="310" y="110" as="targetPoint" />
            <Array as="points" />
          </mxGeometry>
        </mxCell>
        <mxCell id="I4kw4sfv-XJ1i7Al1kqw-373" value="" style="edgeStyle=none;orthogonalLoop=1;jettySize=auto;html=1;rounded=0;" edge="1" parent="1">
          <mxGeometry width="100" relative="1" as="geometry">
            <mxPoint x="860" y="1540" as="sourcePoint" />
            <mxPoint x="1020" y="1400" as="targetPoint" />
            <Array as="points" />
          </mxGeometry>
        </mxCell>
        <mxCell id="I4kw4sfv-XJ1i7Al1kqw-374" value="" style="edgeStyle=none;orthogonalLoop=1;jettySize=auto;html=1;rounded=0;" edge="1" parent="1">
          <mxGeometry width="100" relative="1" as="geometry">
            <mxPoint x="860" y="1378.46" as="sourcePoint" />
            <mxPoint x="990" y="1250" as="targetPoint" />
            <Array as="points" />
          </mxGeometry>
        </mxCell>
        <mxCell id="I4kw4sfv-XJ1i7Al1kqw-375" value="" style="edgeStyle=none;orthogonalLoop=1;jettySize=auto;html=1;rounded=0;" edge="1" parent="1">
          <mxGeometry width="100" relative="1" as="geometry">
            <mxPoint x="80" y="900" as="sourcePoint" />
            <mxPoint x="230" y="740" as="targetPoint" />
            <Array as="points" />
          </mxGeometry>
        </mxCell>
        <mxCell id="I4kw4sfv-XJ1i7Al1kqw-377" value="" style="edgeStyle=none;orthogonalLoop=1;jettySize=auto;html=1;rounded=0;" edge="1" parent="1">
          <mxGeometry width="100" relative="1" as="geometry">
            <mxPoint x="1490" y="1250" as="sourcePoint" />
            <mxPoint x="1620" y="960" as="targetPoint" />
            <Array as="points" />
          </mxGeometry>
        </mxCell>
        <mxCell id="I4kw4sfv-XJ1i7Al1kqw-380" value="" style="edgeStyle=none;orthogonalLoop=1;jettySize=auto;html=1;rounded=0;" edge="1" parent="1">
          <mxGeometry width="100" relative="1" as="geometry">
            <mxPoint x="2140" y="679.4300000000001" as="sourcePoint" />
            <mxPoint x="2260" y="500" as="targetPoint" />
            <Array as="points" />
          </mxGeometry>
        </mxCell>
        <mxCell id="I4kw4sfv-XJ1i7Al1kqw-381" value="" style="edgeStyle=none;orthogonalLoop=1;jettySize=auto;html=1;rounded=0;" edge="1" parent="1">
          <mxGeometry width="100" relative="1" as="geometry">
            <mxPoint x="2050" y="990" as="sourcePoint" />
            <mxPoint x="2120" y="820" as="targetPoint" />
            <Array as="points" />
          </mxGeometry>
        </mxCell>
        <mxCell id="I4kw4sfv-XJ1i7Al1kqw-383" value="SE4_7bit" style="ellipse;whiteSpace=wrap;html=1;" vertex="1" parent="1">
          <mxGeometry x="2670" y="1390" width="80" height="80" as="geometry" />
        </mxCell>
        <mxCell id="I4kw4sfv-XJ1i7Al1kqw-385" value="" style="edgeStyle=none;orthogonalLoop=1;jettySize=auto;html=1;rounded=0;" edge="1" parent="1">
          <mxGeometry width="100" relative="1" as="geometry">
            <mxPoint x="2180" y="1014.3800000000001" as="sourcePoint" />
            <mxPoint x="2270" y="840" as="targetPoint" />
            <Array as="points" />
          </mxGeometry>
        </mxCell>
        <mxCell id="I4kw4sfv-XJ1i7Al1kqw-386" value="5" style="text;html=1;align=center;verticalAlign=middle;resizable=0;points=[];autosize=1;strokeColor=none;fillColor=none;" vertex="1" parent="1">
          <mxGeometry x="2210" y="975" width="30" height="30" as="geometry" />
        </mxCell>
        <mxCell id="I4kw4sfv-XJ1i7Al1kqw-388" value="SE5_7bit" style="ellipse;whiteSpace=wrap;html=1;" vertex="1" parent="1">
          <mxGeometry x="2190" y="1330" width="80" height="80" as="geometry" />
        </mxCell>
        <mxCell id="I4kw4sfv-XJ1i7Al1kqw-391" value="" style="edgeStyle=none;orthogonalLoop=1;jettySize=auto;html=1;rounded=0;" edge="1" parent="1">
          <mxGeometry width="100" relative="1" as="geometry">
            <mxPoint x="2150" y="1240" as="sourcePoint" />
            <mxPoint x="2280" y="1010" as="targetPoint" />
            <Array as="points" />
          </mxGeometry>
        </mxCell>
        <mxCell id="I4kw4sfv-XJ1i7Al1kqw-393" value="C1" style="rhombus;whiteSpace=wrap;html=1;" vertex="1" parent="1">
          <mxGeometry x="2625" y="1102.5" width="60" height="50" as="geometry" />
        </mxCell>
        <mxCell id="I4kw4sfv-XJ1i7Al1kqw-396" value="C1_out" style="text;html=1;align=center;verticalAlign=middle;resizable=0;points=[];autosize=1;strokeColor=none;fillColor=none;" vertex="1" parent="1">
          <mxGeometry x="2680" y="1118" width="60" height="30" as="geometry" />
        </mxCell>
        <mxCell id="I4kw4sfv-XJ1i7Al1kqw-397" value="SE8_10bit" style="ellipse;whiteSpace=wrap;html=1;" vertex="1" parent="1">
          <mxGeometry x="2635" y="1148" width="50" height="50" as="geometry" />
        </mxCell>
        <mxCell id="I4kw4sfv-XJ1i7Al1kqw-399" value="SE_out8" style="text;html=1;align=center;verticalAlign=middle;resizable=0;points=[];autosize=1;strokeColor=none;fillColor=none;" vertex="1" parent="1">
          <mxGeometry x="2668.43" y="1170" width="70" height="30" as="geometry" />
        </mxCell>
        <mxCell id="I4kw4sfv-XJ1i7Al1kqw-402" value="" style="edgeStyle=none;orthogonalLoop=1;jettySize=auto;html=1;rounded=0;" edge="1" parent="1">
          <mxGeometry width="100" relative="1" as="geometry">
            <mxPoint x="2710" y="950" as="sourcePoint" />
            <mxPoint x="2790" y="726.86279296875" as="targetPoint" />
            <Array as="points" />
          </mxGeometry>
        </mxCell>
        <mxCell id="I4kw4sfv-XJ1i7Al1kqw-403" value="" style="edgeStyle=none;orthogonalLoop=1;jettySize=auto;html=1;rounded=0;" edge="1" parent="1">
          <mxGeometry width="100" relative="1" as="geometry">
            <mxPoint x="2730" y="1250" as="sourcePoint" />
            <mxPoint x="2820" y="990" as="targetPoint" />
            <Array as="points" />
          </mxGeometry>
        </mxCell>
        <mxCell id="I4kw4sfv-XJ1i7Al1kqw-404" value="" style="edgeStyle=none;orthogonalLoop=1;jettySize=auto;html=1;rounded=0;" edge="1" parent="1">
          <mxGeometry width="100" relative="1" as="geometry">
            <mxPoint x="3410" y="1400" as="sourcePoint" />
            <mxPoint x="3460" y="700" as="targetPoint" />
            <Array as="points" />
          </mxGeometry>
        </mxCell>
        <mxCell id="I4kw4sfv-XJ1i7Al1kqw-407" value="" style="edgeStyle=none;orthogonalLoop=1;jettySize=auto;html=1;rounded=0;" edge="1" parent="1">
          <mxGeometry width="100" relative="1" as="geometry">
            <mxPoint x="3050" y="1880" as="sourcePoint" />
            <mxPoint x="3200" y="1650" as="targetPoint" />
            <Array as="points" />
          </mxGeometry>
        </mxCell>
        <mxCell id="I4kw4sfv-XJ1i7Al1kqw-410" value="" style="edgeStyle=none;orthogonalLoop=1;jettySize=auto;html=1;rounded=0;" edge="1" parent="1">
          <mxGeometry width="100" relative="1" as="geometry">
            <mxPoint x="4200" y="840" as="sourcePoint" />
            <mxPoint x="4260" y="630" as="targetPoint" />
            <Array as="points" />
          </mxGeometry>
        </mxCell>
        <mxCell id="I4kw4sfv-XJ1i7Al1kqw-411" value="" style="edgeStyle=none;orthogonalLoop=1;jettySize=auto;html=1;rounded=0;" edge="1" parent="1">
          <mxGeometry width="100" relative="1" as="geometry">
            <mxPoint x="4190" y="1540" as="sourcePoint" />
            <mxPoint x="4340" y="1210" as="targetPoint" />
            <Array as="points" />
          </mxGeometry>
        </mxCell>
        <mxCell id="I4kw4sfv-XJ1i7Al1kqw-412" value="" style="edgeStyle=none;orthogonalLoop=1;jettySize=auto;html=1;rounded=0;" edge="1" parent="1">
          <mxGeometry width="100" relative="1" as="geometry">
            <mxPoint x="4880" y="920" as="sourcePoint" />
            <mxPoint x="5000" y="670" as="targetPoint" />
            <Array as="points" />
          </mxGeometry>
        </mxCell>
        <mxCell id="I4kw4sfv-XJ1i7Al1kqw-413" value="" style="edgeStyle=none;orthogonalLoop=1;jettySize=auto;html=1;rounded=0;" edge="1" parent="1">
          <mxGeometry width="100" relative="1" as="geometry">
            <mxPoint x="5710" y="1116.18" as="sourcePoint" />
            <mxPoint x="5930" y="600" as="targetPoint" />
            <Array as="points" />
          </mxGeometry>
        </mxCell>
        <mxCell id="I4kw4sfv-XJ1i7Al1kqw-415" value="" style="edgeStyle=none;orthogonalLoop=1;jettySize=auto;html=1;rounded=0;" edge="1" parent="1">
          <mxGeometry width="100" relative="1" as="geometry">
            <mxPoint x="2180" y="1410" as="sourcePoint" />
            <mxPoint x="2290" y="1310" as="targetPoint" />
            <Array as="points" />
          </mxGeometry>
        </mxCell>
        <mxCell id="I4kw4sfv-XJ1i7Al1kqw-416" value="" style="edgeStyle=none;orthogonalLoop=1;jettySize=auto;html=1;rounded=0;" edge="1" parent="1">
          <mxGeometry width="100" relative="1" as="geometry">
            <mxPoint x="2670" y="1480" as="sourcePoint" />
            <mxPoint x="2770" y="1380" as="targetPoint" />
            <Array as="points" />
          </mxGeometry>
        </mxCell>
        <mxCell id="I4kw4sfv-XJ1i7Al1kqw-417" value="" style="edgeStyle=none;orthogonalLoop=1;jettySize=auto;html=1;rounded=0;" edge="1" parent="1">
          <mxGeometry width="100" relative="1" as="geometry">
            <mxPoint x="2610" y="1190" as="sourcePoint" />
            <mxPoint x="2710" y="1160" as="targetPoint" />
            <Array as="points" />
          </mxGeometry>
        </mxCell>
        <mxCell id="I4kw4sfv-XJ1i7Al1kqw-418" value="" style="edgeStyle=none;orthogonalLoop=1;jettySize=auto;html=1;rounded=0;" edge="1" parent="1">
          <mxGeometry width="100" relative="1" as="geometry">
            <mxPoint x="2690" y="1090" as="sourcePoint" />
            <mxPoint x="2730" y="1020" as="targetPoint" />
            <Array as="points" />
          </mxGeometry>
        </mxCell>
        <mxCell id="I4kw4sfv-XJ1i7Al1kqw-419" value="" style="edgeStyle=none;orthogonalLoop=1;jettySize=auto;html=1;rounded=0;" edge="1" parent="1">
          <mxGeometry width="100" relative="1" as="geometry">
            <mxPoint x="2640" y="890" as="sourcePoint" />
            <mxPoint x="2680" y="820" as="targetPoint" />
            <Array as="points" />
          </mxGeometry>
        </mxCell>
        <mxCell id="I4kw4sfv-XJ1i7Al1kqw-420" value="" style="edgeStyle=none;orthogonalLoop=1;jettySize=auto;html=1;rounded=0;" edge="1" parent="1">
          <mxGeometry width="100" relative="1" as="geometry">
            <mxPoint x="5650" y="1320" as="sourcePoint" />
            <mxPoint x="5740" y="1220" as="targetPoint" />
            <Array as="points" />
          </mxGeometry>
        </mxCell>
        <mxCell id="I4kw4sfv-XJ1i7Al1kqw-421" value="" style="edgeStyle=none;orthogonalLoop=1;jettySize=auto;html=1;rounded=0;" edge="1" parent="1">
          <mxGeometry width="100" relative="1" as="geometry">
            <mxPoint x="5740" y="1470" as="sourcePoint" />
            <mxPoint x="5890" y="1170" as="targetPoint" />
            <Array as="points" />
          </mxGeometry>
        </mxCell>
        <mxCell id="I4kw4sfv-XJ1i7Al1kqw-422" value="" style="edgeStyle=none;orthogonalLoop=1;jettySize=auto;html=1;rounded=0;" edge="1" parent="1">
          <mxGeometry width="100" relative="1" as="geometry">
            <mxPoint x="2600" y="1090" as="sourcePoint" />
            <mxPoint x="2650" y="1040" as="targetPoint" />
            <Array as="points" />
          </mxGeometry>
        </mxCell>
        <mxCell id="I4kw4sfv-XJ1i7Al1kqw-424" value="" style="edgeStyle=none;orthogonalLoop=1;jettySize=auto;html=1;rounded=0;entryX=0.5;entryY=1;entryDx=0;entryDy=0;" edge="1" parent="1" target="I4kw4sfv-XJ1i7Al1kqw-1">
          <mxGeometry width="100" relative="1" as="geometry">
            <mxPoint x="1020" y="1110" as="sourcePoint" />
            <mxPoint x="820" y="1340" as="targetPoint" />
            <Array as="points">
              <mxPoint x="930" y="1580" />
              <mxPoint x="640" y="1590" />
            </Array>
          </mxGeometry>
        </mxCell>
        <mxCell id="I4kw4sfv-XJ1i7Al1kqw-425" value="" style="edgeStyle=none;orthogonalLoop=1;jettySize=auto;html=1;rounded=0;" edge="1" parent="1">
          <mxGeometry width="100" relative="1" as="geometry">
            <mxPoint x="900" y="1010" as="sourcePoint" />
            <mxPoint x="860" y="720" as="targetPoint" />
            <Array as="points" />
          </mxGeometry>
        </mxCell>
        <mxCell id="I4kw4sfv-XJ1i7Al1kqw-430" value="" style="edgeStyle=none;orthogonalLoop=1;jettySize=auto;html=1;rounded=0;" edge="1" parent="1">
          <mxGeometry width="100" relative="1" as="geometry">
            <mxPoint x="2920" y="1130" as="sourcePoint" />
            <mxPoint x="3080" y="880" as="targetPoint" />
            <Array as="points" />
          </mxGeometry>
        </mxCell>
      </root>
    </mxGraphModel>
  </diagram>
</mxfile>
